{"glyphs":{"0":{"ha":944,"x_min":29,"x_max":915,"o":"m 915 818 l 915 372 q 801 58 915 150 q 472 -24 700 -24 q 143 58 244 -24 q 29 372 29 150 l 29 818 q 143 1132 29 1040 q 472 1214 244 1214 q 801 1132 700 1214 q 915 818 915 1040 m 544 369 l 544 822 l 544 844 q 535 919 544 897 q 471 957 518 957 q 404 897 415 957 q 400 835 400 875 l 400 369 q 407 282 400 306 q 472 233 422 233 q 533 269 517 233 q 544 344 544 294 l 544 369 z "},"1":{"ha":639,"x_min":89,"x_max":540,"o":"m 500 1190 l 500 328 q 505 253 500 276 q 540 211 510 231 l 540 0 l 89 0 l 89 211 q 122 250 114 226 q 129 307 129 274 l 129 328 l 129 863 l 129 879 q 122 940 129 917 q 89 979 115 963 l 89 1190 l 500 1190 z "},"2":{"ha":1000,"x_min":47,"x_max":943,"o":"m 572 374 l 921 374 l 921 0 l 47 0 l 47 278 q 57 408 47 367 q 119 525 72 474 q 228 610 160 568 q 351 675 254 625 q 537 782 501 751 q 572 864 572 813 q 553 930 572 903 q 493 957 533 957 q 434 924 447 957 q 421 838 421 890 l 421 811 l 421 765 l 68 765 l 68 1088 q 274 1184 158 1154 q 518 1214 389 1214 q 681 1198 608 1214 q 815 1139 753 1182 q 910 1030 876 1096 q 943 875 943 964 l 943 833 q 900 650 943 726 q 721 496 847 557 l 589 431 q 435 336 471 371 q 407 271 407 310 l 407 246 l 450 246 q 546 274 519 246 q 572 374 572 301 z "},"3":{"ha":944,"x_min":39,"x_max":926,"o":"m 400 794 l 44 794 l 44 1085 q 251 1182 132 1150 q 490 1214 369 1214 q 785 1142 675 1214 q 917 879 917 1056 q 881 721 917 785 q 761 624 844 657 q 893 514 854 590 q 926 342 926 449 q 903 182 926 246 q 807 56 874 100 q 644 -8 740 11 q 471 -24 568 -24 q 243 3 343 -24 q 39 104 125 33 l 39 435 l 400 435 l 400 390 q 406 294 400 319 q 467 233 419 233 q 539 275 517 233 q 556 358 556 307 q 521 467 556 438 q 403 496 486 496 l 288 496 l 288 732 l 383 732 q 513 754 479 732 q 546 851 546 776 q 531 922 546 896 q 468 957 511 957 q 404 886 415 957 q 400 808 400 860 l 400 794 z "},"4":{"ha":972,"x_min":8,"x_max":926,"o":"m 482 535 l 482 792 l 317 535 l 482 535 m 853 535 l 926 535 l 926 289 l 853 289 q 863 240 853 260 q 899 208 874 219 l 899 0 l 418 0 l 418 208 q 482 289 482 225 l 8 289 l 8 571 l 418 1190 l 853 1190 l 853 535 z "},"5":{"ha":917,"x_min":26,"x_max":897,"o":"m 872 867 l 522 867 q 497 927 515 910 q 436 944 479 944 l 386 944 l 386 789 q 468 810 421 803 q 560 818 515 818 q 701 799 639 818 q 824 722 779 774 q 885 582 868 671 q 897 424 897 518 q 886 246 897 306 q 811 88 868 147 q 657 0 754 28 q 478 -24 575 -24 q 237 8 346 -24 q 26 114 128 40 l 26 450 l 386 450 l 386 317 q 401 258 386 281 q 450 235 417 235 q 518 286 504 235 q 526 407 526 315 l 526 438 q 509 552 526 525 q 454 579 492 579 q 396 554 413 579 q 386 528 390 546 l 26 528 l 26 1190 l 872 1190 l 872 867 z "},"6":{"ha":944,"x_min":31,"x_max":915,"o":"m 401 417 l 401 342 q 420 255 401 276 q 475 233 439 233 q 532 269 515 233 q 544 342 544 297 l 544 417 q 535 494 544 472 q 471 532 518 532 q 411 494 426 532 q 401 417 401 469 m 128 1117 q 269 1188 181 1163 q 467 1214 358 1214 q 696 1182 583 1214 q 897 1086 808 1150 l 897 821 l 543 821 l 543 839 q 535 915 543 892 q 475 957 519 957 q 415 922 429 957 q 407 839 407 901 l 407 743 q 485 768 440 760 q 572 776 531 776 q 717 754 649 776 q 833 689 786 732 q 900 567 879 646 q 915 421 915 507 q 912 290 915 347 q 896 190 908 233 q 794 50 869 101 q 490 -24 688 -24 q 103 99 203 -24 q 31 407 31 188 l 31 818 q 44 979 31 924 q 128 1117 65 1064 z "},"7":{"ha":917,"x_min":40,"x_max":894,"o":"m 347 829 l 347 707 l 40 707 l 40 1190 l 894 1190 l 894 976 l 535 0 l 143 0 l 490 944 q 376 922 404 944 q 347 829 347 899 z "},"8":{"ha":1000,"x_min":36,"x_max":969,"o":"m 579 382 q 571 467 579 443 q 503 511 554 511 q 436 468 453 511 q 426 382 426 442 q 435 286 426 314 q 503 233 450 233 q 567 274 549 233 q 579 356 579 303 l 579 382 m 797 628 q 932 519 889 597 q 969 347 969 450 q 838 49 969 136 q 506 -24 729 -24 q 138 82 254 -24 q 36 343 36 174 q 79 519 36 444 q 211 628 122 594 q 94 727 129 665 q 60 882 60 789 q 193 1147 60 1065 q 499 1214 301 1214 q 856 1115 744 1214 q 946 892 946 1035 q 915 732 946 794 q 797 628 879 660 m 579 840 q 560 934 579 911 q 503 957 542 957 q 441 926 456 957 q 426 840 426 894 q 445 747 426 769 q 503 724 464 724 q 560 748 540 724 q 579 840 579 772 z "},"9":{"ha":944,"x_min":32,"x_max":913,"o":"m 397 833 l 397 764 q 407 685 397 711 q 471 640 424 640 q 533 683 517 640 q 544 764 544 713 l 544 833 q 535 913 544 888 q 471 957 518 957 q 407 914 424 957 q 397 833 397 889 m 543 353 l 543 440 q 358 406 447 406 q 126 482 221 406 q 47 594 68 528 q 32 736 32 644 l 32 842 q 121 1121 32 1036 q 457 1214 218 1214 q 810 1128 707 1214 q 913 829 913 1042 l 913 375 q 844 107 913 193 q 458 -24 742 -24 q 235 4 339 -24 q 47 97 131 32 l 47 351 l 389 351 q 401 278 389 332 q 426 245 407 257 q 465 233 444 233 q 532 274 514 233 q 543 353 543 299 z "}," ":{"ha":472,"x_min":0,"x_max":0,"o":""},"!":{"ha":611,"x_min":110,"x_max":499,"o":"m 300 -24 q 187 22 233 -24 q 140 136 140 67 q 188 250 140 204 q 300 296 235 296 q 413 251 367 296 q 460 136 460 206 q 414 22 460 68 q 300 -24 368 -24 m 382 365 l 226 365 l 118 979 q 110 1058 110 1024 q 159 1179 110 1144 q 304 1214 208 1214 q 447 1182 403 1214 q 499 1057 499 1144 q 490 979 499 1024 l 382 365 z "},"$":{"ha":917,"x_min":24,"x_max":892,"o":"m 524 779 l 524 807 l 524 826 q 514 904 524 878 q 458 946 499 946 q 408 922 429 946 q 386 861 386 897 q 410 789 386 818 q 508 735 440 751 q 707 676 654 699 q 842 574 799 638 q 892 369 892 499 q 819 127 892 214 q 593 26 746 40 l 593 -96 l 328 -96 l 328 26 q 169 64 242 38 q 39 138 97 90 l 39 444 l 379 444 l 379 410 q 397 281 379 314 q 458 249 414 249 q 508 278 486 249 q 529 349 529 308 q 501 428 529 394 q 397 482 468 468 q 107 602 190 525 q 24 831 24 679 q 97 1068 24 985 q 328 1169 171 1151 l 328 1272 l 593 1272 l 593 1169 q 733 1122 664 1153 q 864 1051 793 1096 l 864 779 l 524 779 z "},"%":{"ha":1278,"x_min":18,"x_max":1272,"o":"m 972 1190 l 546 0 l 318 0 l 744 1190 l 972 1190 m 1272 383 l 1272 188 q 1216 23 1272 69 q 1039 -24 1160 -24 q 864 19 917 -24 q 806 188 806 67 l 806 383 q 862 548 806 501 q 1039 594 918 594 q 1217 549 1161 594 q 1272 383 1272 504 m 1015 385 l 1015 186 l 1015 163 q 1019 133 1015 143 q 1039 124 1024 124 q 1058 134 1053 124 q 1063 163 1063 144 l 1063 186 l 1063 385 l 1063 408 q 1058 438 1063 428 q 1039 447 1054 447 q 1020 437 1025 447 q 1015 408 1015 426 l 1015 385 m 485 1003 l 485 807 q 428 642 485 689 q 251 596 372 596 q 76 639 129 596 q 18 807 18 686 l 18 1003 q 74 1167 18 1121 q 251 1214 131 1214 q 429 1169 374 1214 q 485 1003 485 1124 m 228 1004 l 228 806 l 228 782 q 232 753 228 763 q 251 743 236 743 q 270 753 265 743 q 275 782 275 764 l 275 806 l 275 1004 l 275 1028 q 271 1057 275 1047 q 251 1067 267 1067 q 233 1056 238 1067 q 228 1028 228 1046 l 228 1004 z "},"&":{"ha":1028,"x_min":44,"x_max":978,"o":"m 568 257 l 568 506 l 513 506 q 444 479 464 506 q 424 381 424 453 q 443 283 424 308 q 513 257 463 257 l 568 257 m 568 732 l 568 793 l 922 793 l 922 732 l 978 732 l 978 506 l 922 506 l 922 0 l 424 0 q 283 6 324 0 q 153 53 206 17 q 67 176 94 94 q 44 328 44 243 q 74 510 44 442 q 206 631 113 601 q 92 719 128 656 q 57 872 57 782 q 183 1140 57 1054 q 481 1214 292 1214 q 922 1092 715 1214 l 922 858 l 568 858 q 554 928 568 904 q 496 957 536 957 q 441 926 456 957 q 426 847 426 896 q 458 756 426 779 q 568 732 490 732 z "},"(":{"ha":667,"x_min":51,"x_max":506,"o":"m 506 -164 l 358 -262 q 132 67 204 -96 q 51 458 51 247 q 133 854 51 672 q 364 1190 208 1019 l 506 1088 q 383 774 422 926 q 343 454 343 622 q 381 144 343 286 q 506 -164 419 1 z "},")":{"ha":667,"x_min":99,"x_max":553,"o":"m 99 1092 l 246 1190 q 472 861 400 1024 q 553 469 553 681 q 471 74 553 256 q 240 -262 396 -92 l 99 -160 q 222 153 182 1 q 261 474 261 306 q 223 784 261 642 q 99 1092 185 926 z "},"*":{"ha":750,"x_min":60,"x_max":699,"o":"m 454 1190 l 454 983 l 653 1047 l 699 906 l 501 842 l 624 671 l 501 582 l 378 753 l 257 582 l 133 671 l 257 842 l 60 906 l 106 1047 l 304 983 l 304 1190 l 454 1190 z "},",":{"ha":472,"x_min":74,"x_max":399,"o":"m 192 -212 l 124 -150 q 181 -77 157 -112 q 222 -1 204 -42 q 116 40 158 -1 q 74 146 74 81 q 119 254 74 213 q 232 296 165 296 q 352 243 306 296 q 399 115 399 190 q 332 -69 399 26 q 192 -212 278 -149 z "},"-":{"ha":472,"x_min":0,"x_max":472,"o":"m 472 332 l 0 332 l 0 613 l 472 613 l 472 332 z "},".":{"ha":472,"x_min":76,"x_max":396,"o":"m 236 -24 q 123 22 169 -24 q 76 136 76 67 q 124 250 76 204 q 236 296 171 296 q 349 251 303 296 q 396 136 396 206 q 350 22 396 68 q 236 -24 304 -24 z "},"/":{"ha":833,"x_min":0,"x_max":738,"o":"m 738 1190 l 275 -314 l 0 -314 l 463 1190 l 738 1190 z "},":":{"ha":472,"x_min":76,"x_max":396,"o":"m 236 478 q 123 523 169 478 q 76 638 76 568 q 124 751 76 706 q 236 797 171 797 q 349 752 303 797 q 396 638 396 707 q 350 524 396 569 q 236 478 304 478 m 236 -24 q 123 22 169 -24 q 76 136 76 67 q 124 250 76 204 q 236 296 171 296 q 349 251 303 296 q 396 136 396 206 q 350 22 396 68 q 236 -24 304 -24 z "},";":{"ha":472,"x_min":74,"x_max":399,"o":"m 192 -212 l 124 -150 q 181 -77 157 -112 q 222 -1 204 -42 q 116 40 158 -1 q 74 146 74 81 q 119 254 74 213 q 232 296 165 296 q 352 243 306 296 q 399 115 399 190 q 332 -69 399 26 q 192 -212 278 -149 m 236 478 q 123 523 169 478 q 76 638 76 568 q 124 751 76 706 q 236 797 171 797 q 349 752 303 797 q 396 638 396 707 q 350 524 396 569 q 236 478 304 478 z "},"?":{"ha":972,"x_min":58,"x_max":918,"o":"m 572 365 l 250 365 l 250 519 q 282 636 250 597 q 419 731 310 669 q 508 785 489 768 q 550 876 550 822 q 472 958 550 958 q 414 930 433 958 q 394 825 394 901 l 394 778 l 58 778 l 58 1082 q 483 1210 249 1210 q 783 1142 674 1210 q 918 879 918 1058 q 905 769 918 829 q 865 667 892 708 q 790 589 839 625 q 692 529 758 565 q 606 474 625 493 q 571 385 571 440 q 572 365 572 372 m 432 -24 q 319 22 365 -24 q 272 136 272 67 q 319 250 272 204 q 432 296 367 296 q 545 251 499 296 q 592 136 592 206 q 546 22 592 68 q 432 -24 500 -24 z "},"A":{"ha":1000,"x_min":13,"x_max":989,"o":"m 403 543 l 525 543 l 464 896 l 403 543 m 422 211 l 422 0 l 13 0 l 13 211 q 56 289 42 232 q 68 346 61 317 l 225 1190 l 753 1190 l 926 328 q 944 261 935 286 q 989 211 961 219 l 989 0 l 521 0 l 521 211 q 564 276 564 228 q 558 311 564 289 l 379 311 q 374 276 374 289 q 422 211 374 224 z "},"B":{"ha":1056,"x_min":51,"x_max":1004,"o":"m 607 0 l 51 0 l 51 211 q 89 247 79 224 q 99 306 99 271 l 99 885 q 90 944 99 922 q 51 979 82 967 l 51 1190 l 590 1190 q 751 1183 688 1190 q 872 1140 814 1175 q 960 1032 929 1104 q 986 889 986 969 q 942 717 986 783 q 799 622 897 650 q 958 525 906 607 q 1004 339 1004 453 q 983 192 1004 256 q 903 69 958 114 q 764 10 847 25 q 607 0 710 0 m 469 943 l 469 729 l 494 729 q 590 750 561 729 q 618 836 618 771 q 588 921 618 899 q 494 943 558 943 l 469 943 m 469 506 l 469 247 l 501 247 q 597 277 569 247 q 624 378 624 307 q 597 477 624 449 q 501 506 569 506 l 469 506 z "},"C":{"ha":972,"x_min":50,"x_max":915,"o":"m 557 754 l 557 825 l 557 856 q 540 935 557 914 q 489 957 522 957 q 431 924 446 957 q 421 853 421 901 l 421 825 l 421 365 l 421 335 q 438 255 421 276 q 489 233 456 233 q 547 267 532 233 q 557 338 557 289 l 557 365 l 557 500 l 915 500 l 915 103 q 737 10 843 43 q 515 -24 631 -24 q 298 0 393 -24 q 149 75 203 24 q 61 238 81 139 q 50 426 50 293 l 50 840 q 67 994 50 938 q 151 1124 90 1072 q 300 1192 207 1169 q 504 1214 393 1214 q 717 1180 610 1214 q 915 1085 824 1146 l 915 754 l 557 754 z "},"D":{"ha":1028,"x_min":53,"x_max":976,"o":"m 53 1190 l 567 1190 q 724 1182 671 1190 q 869 1124 813 1168 q 960 989 936 1071 q 976 825 976 931 l 976 379 q 963 222 976 275 q 881 88 943 146 q 772 23 836 46 q 578 0 707 0 l 53 0 l 53 211 q 90 247 81 224 q 100 306 100 271 l 100 885 q 92 944 100 922 q 53 979 83 967 l 53 1190 m 471 931 l 471 251 l 500 251 q 583 276 561 251 q 606 367 606 301 l 606 815 q 583 906 606 881 q 500 931 561 931 l 471 931 z "},"E":{"ha":972,"x_min":51,"x_max":943,"o":"m 601 431 l 943 431 l 943 0 l 51 0 l 51 211 q 84 250 76 226 q 92 307 92 274 l 92 328 l 92 863 l 92 879 q 85 940 92 917 q 51 979 78 963 l 51 1190 l 943 1190 l 943 788 l 601 788 l 601 824 q 583 911 601 889 q 490 938 561 938 l 468 938 l 468 725 l 703 725 l 703 493 l 468 493 l 468 253 l 490 253 q 588 285 568 253 q 601 392 601 307 l 601 431 z "},"F":{"ha":917,"x_min":51,"x_max":917,"o":"m 917 781 l 596 781 l 596 838 q 594 877 596 864 q 584 907 593 890 q 549 931 575 924 q 469 938 524 938 l 469 711 l 706 711 l 706 479 l 469 479 l 469 328 q 474 253 469 276 q 510 211 479 231 l 510 0 l 58 0 l 58 211 q 91 250 83 226 q 99 307 99 274 l 99 328 l 99 863 q 96 922 99 907 q 51 979 89 965 l 51 1190 l 917 1190 l 917 781 z "},"G":{"ha":972,"x_min":50,"x_max":924,"o":"m 924 1076 l 924 776 l 567 776 l 567 803 l 567 836 q 557 917 567 892 q 496 957 542 957 q 432 918 450 957 q 421 840 421 893 l 421 311 q 440 256 421 278 q 496 233 460 233 q 556 272 539 233 q 567 351 567 299 l 567 389 l 567 442 l 503 442 l 503 674 l 924 674 l 924 106 q 715 1 843 33 q 479 -24 614 -24 q 280 -3 349 -24 q 165 56 211 17 q 67 207 90 118 q 50 388 50 268 l 50 840 q 67 993 50 936 q 149 1121 89 1071 q 289 1192 208 1171 q 463 1214 369 1214 q 711 1182 594 1214 q 924 1076 828 1150 z "},"H":{"ha":1083,"x_min":60,"x_max":1024,"o":"m 1024 211 l 1024 0 l 572 0 l 572 211 q 605 250 597 226 q 613 307 613 274 l 613 328 l 613 503 l 471 503 l 471 328 q 476 253 471 276 q 511 211 481 231 l 511 0 l 60 0 l 60 211 q 92 250 85 226 q 100 307 100 274 l 100 328 l 100 863 l 100 879 q 93 940 100 917 q 60 979 86 963 l 60 1190 l 511 1190 l 511 979 q 478 940 486 964 q 471 883 471 917 l 471 863 l 471 735 l 613 735 l 613 863 l 613 879 q 606 940 613 917 q 572 979 599 963 l 572 1190 l 1024 1190 l 1024 979 q 991 940 999 964 q 983 883 983 917 l 983 863 l 983 328 q 988 253 983 276 q 1024 211 993 231 z "},"I":{"ha":556,"x_min":53,"x_max":504,"o":"m 93 328 l 93 863 l 93 879 q 86 940 93 917 q 53 979 79 963 l 53 1190 l 504 1190 l 504 979 q 472 940 479 964 q 464 883 464 917 l 464 863 l 464 328 q 469 253 464 276 q 504 211 474 231 l 504 0 l 53 0 l 53 211 q 85 250 78 226 q 93 307 93 274 l 93 328 z "},"J":{"ha":583,"x_min":1,"x_max":550,"o":"m 1 -6 l 1 218 q 121 263 93 218 q 139 371 139 292 l 139 863 l 139 879 q 132 940 139 917 q 99 979 125 963 l 99 1190 l 550 1190 l 550 979 q 517 940 525 964 q 510 883 510 917 l 510 863 l 510 365 l 510 328 q 494 167 510 218 q 443 76 478 115 q 313 -4 392 19 q 160 -24 249 -24 q 110 -22 128 -24 q 1 -6 92 -19 z "},"K":{"ha":1056,"x_min":57,"x_max":1043,"o":"m 943 908 l 785 653 l 960 306 q 989 254 979 268 q 1043 211 1008 229 l 1043 0 l 618 0 l 618 142 q 600 263 618 218 q 564 336 578 306 l 471 517 l 468 328 q 473 253 468 276 q 508 211 478 231 l 508 0 l 57 0 l 57 211 q 90 250 82 226 q 97 307 97 274 l 97 328 l 97 863 l 97 879 q 90 940 97 917 q 57 979 83 963 l 57 1190 l 508 1190 l 508 979 q 476 940 483 964 q 468 883 468 917 l 468 863 l 468 710 l 556 847 q 609 943 600 921 q 618 1003 618 965 l 618 1190 l 1021 1190 l 1021 979 q 974 951 989 965 q 943 908 960 936 z "},"L":{"ha":944,"x_min":33,"x_max":900,"o":"m 900 0 l 33 0 l 33 211 q 66 250 58 226 q 74 307 74 274 l 74 328 l 74 863 l 74 879 q 67 940 74 917 q 33 979 60 963 l 33 1190 l 485 1190 l 485 979 q 452 940 460 964 q 444 883 444 917 l 444 863 l 444 253 l 481 253 q 563 290 544 253 q 574 385 574 313 l 574 578 l 900 578 l 900 0 z "},"M":{"ha":1306,"x_min":67,"x_max":1240,"o":"m 535 1190 l 657 703 l 785 1190 l 1240 1190 l 1240 979 q 1208 940 1215 964 q 1200 883 1200 917 l 1200 863 l 1200 328 q 1205 253 1200 276 q 1240 211 1210 231 l 1240 0 l 806 0 l 806 211 q 838 250 831 226 q 846 307 846 274 l 846 328 l 846 647 l 682 0 l 565 0 l 396 647 l 393 328 q 398 253 393 276 q 433 211 403 231 l 433 0 l 67 0 l 67 211 q 99 250 92 226 q 107 307 107 274 l 107 328 l 107 863 l 107 879 q 100 940 107 917 q 67 979 93 963 l 67 1190 l 535 1190 z "},"N":{"ha":1083,"x_min":65,"x_max":1018,"o":"m 468 1190 l 675 653 l 678 863 l 678 879 q 671 940 678 917 q 638 979 664 963 l 638 1190 l 1018 1190 l 1018 979 q 985 940 993 964 q 978 883 978 917 l 978 863 l 978 0 l 618 0 l 397 535 l 394 328 q 399 253 394 276 q 435 211 404 231 l 435 0 l 65 0 l 65 211 q 98 250 90 226 q 106 307 106 274 l 106 328 l 106 863 l 106 879 q 99 940 106 917 q 65 979 92 963 l 65 1190 l 468 1190 z "},"O":{"ha":1000,"x_min":57,"x_max":943,"o":"m 943 846 l 943 344 q 821 50 943 136 q 500 -24 717 -24 q 181 50 285 -24 q 57 344 57 138 l 57 846 q 179 1140 57 1054 q 500 1214 283 1214 q 819 1140 715 1214 q 943 846 943 1053 m 428 865 l 428 326 q 435 278 428 296 q 500 233 451 233 q 555 259 538 233 q 572 326 572 285 l 572 865 q 565 914 572 896 q 500 957 549 957 q 445 932 463 957 q 428 865 428 907 z "},"P":{"ha":1000,"x_min":57,"x_max":981,"o":"m 97 328 l 97 863 l 97 879 q 90 940 97 917 q 57 979 83 963 l 57 1190 l 542 1190 q 708 1183 657 1190 q 863 1128 807 1169 q 963 978 933 1072 q 981 839 981 918 q 979 803 979 808 l 979 708 q 904 440 979 524 q 600 342 817 342 l 468 342 q 468 282 468 311 q 508 211 472 233 l 508 0 l 57 0 l 57 211 q 90 250 82 226 q 97 307 97 274 l 97 328 m 468 942 l 468 593 l 503 593 q 596 638 576 593 q 608 767 608 667 q 604 871 608 847 q 503 942 592 942 l 468 942 z "},"Q":{"ha":972,"x_min":43,"x_max":943,"o":"m 414 865 l 414 326 q 421 278 414 296 q 486 233 438 233 q 541 259 524 233 q 558 326 558 285 l 558 865 q 551 914 558 896 q 486 957 535 957 q 431 932 449 957 q 414 865 414 907 m 861 103 l 943 39 l 814 -175 q 669 -106 736 -143 q 539 -21 601 -69 l 486 -24 q 167 50 271 -24 q 43 344 43 138 l 43 846 q 165 1140 43 1054 q 486 1214 269 1214 q 806 1140 701 1214 q 929 846 929 1053 l 929 344 q 915 209 929 263 q 861 103 901 156 z "},"R":{"ha":1056,"x_min":50,"x_max":1007,"o":"m 461 464 l 461 328 q 466 253 461 276 q 501 211 471 231 l 501 0 l 50 0 l 50 211 q 83 250 75 226 q 90 307 90 274 l 90 328 l 90 863 l 90 879 q 83 940 90 917 q 50 979 76 963 l 50 1190 l 565 1190 q 713 1186 675 1190 q 853 1143 797 1176 q 954 1029 921 1103 q 983 876 983 964 q 947 701 983 767 q 806 597 903 622 q 926 531 892 575 q 961 396 961 486 l 961 328 q 972 244 961 268 q 1007 211 982 221 l 1007 0 l 608 0 q 592 119 597 47 q 588 319 588 190 q 571 426 588 400 q 476 464 547 464 l 461 464 m 461 944 l 461 701 l 499 701 q 581 731 558 701 q 604 826 604 760 q 581 915 604 886 q 499 944 557 944 l 461 944 z "},"S":{"ha":1000,"x_min":47,"x_max":953,"o":"m 569 808 l 569 831 q 560 913 569 886 q 496 957 543 957 q 442 935 461 957 q 424 878 424 914 q 427 840 424 854 q 446 811 431 826 q 481 788 456 800 q 550 764 506 776 q 696 722 657 736 q 833 658 781 693 q 890 608 868 635 q 925 546 913 582 q 945 466 938 510 q 953 381 953 422 l 953 375 q 858 90 953 188 q 497 -24 747 -24 q 271 3 372 -24 q 65 101 150 35 l 65 421 l 428 421 q 428 333 428 375 q 439 272 429 290 q 506 233 460 233 q 559 261 540 233 q 578 325 578 289 q 549 420 578 388 q 399 482 521 453 q 139 589 207 529 q 47 849 47 669 l 47 875 q 73 1029 47 972 q 171 1140 99 1086 q 305 1197 225 1181 q 476 1214 385 1214 q 711 1186 607 1214 q 915 1089 815 1158 l 915 808 l 569 808 z "},"T":{"ha":1056,"x_min":15,"x_max":1042,"o":"m 15 653 l 15 1190 l 1042 1190 l 1042 653 l 779 653 l 779 853 q 765 917 779 896 q 714 938 751 938 l 714 328 q 719 253 714 276 q 754 211 724 231 l 754 0 l 303 0 l 303 211 q 335 250 328 226 q 343 307 343 274 l 343 328 l 343 938 q 292 917 306 938 q 278 853 278 897 l 278 653 l 15 653 z "},"U":{"ha":1028,"x_min":46,"x_max":990,"o":"m 560 979 l 560 1190 l 990 1190 l 990 979 q 953 939 961 963 q 944 879 944 915 l 944 863 l 944 381 q 926 210 944 269 q 831 65 901 128 q 681 -7 772 14 q 515 -24 610 -24 q 351 -8 418 -24 q 200 65 260 13 q 106 208 131 126 q 86 381 86 272 l 86 863 l 86 879 q 79 940 86 917 q 46 979 72 963 l 46 1190 l 497 1190 l 497 979 q 465 940 472 964 q 457 883 457 917 l 457 863 l 457 319 q 476 256 457 278 q 531 235 494 235 q 593 268 575 235 q 604 319 604 289 l 604 863 l 604 879 q 597 940 604 918 q 560 979 590 961 z "},"V":{"ha":972,"x_min":13,"x_max":960,"o":"m 904 835 l 744 0 l 239 0 l 74 861 q 56 926 64 907 q 13 982 42 956 l 13 1190 l 472 1190 l 472 979 q 438 922 438 956 q 440 895 438 914 q 446 857 443 876 l 522 367 l 590 857 q 595 892 594 881 q 596 917 596 903 q 553 979 596 958 l 553 1190 l 960 1190 l 960 982 q 922 917 938 968 q 904 835 915 894 z "},"W":{"ha":1389,"x_min":15,"x_max":1375,"o":"m 974 979 l 974 1190 l 1375 1190 l 1375 979 q 1336 917 1349 958 q 1319 842 1331 899 l 1163 0 l 806 0 l 701 568 l 583 0 l 233 0 l 76 842 q 58 917 65 897 q 15 979 43 958 l 15 1190 l 479 1190 l 479 979 q 440 915 440 963 l 486 540 l 614 1190 l 842 1190 l 972 542 l 1013 915 q 974 979 1013 963 z "},"X":{"ha":972,"x_min":14,"x_max":960,"o":"m 81 306 l 264 624 l 111 875 q 65 950 67 949 q 28 979 49 971 l 28 1190 l 451 1190 l 451 1092 q 454 1028 451 1043 q 478 971 457 1014 l 514 896 l 550 971 q 572 1030 568 1011 q 576 1092 576 1049 l 576 1190 l 949 1190 l 949 979 q 914 951 931 972 q 865 875 906 942 l 715 624 l 903 290 q 929 247 915 268 q 960 211 943 225 l 960 0 l 506 0 l 506 132 q 479 264 506 201 q 442 342 456 313 q 403 264 415 293 q 379 132 379 210 l 379 0 l 14 0 l 14 211 q 50 256 35 233 q 81 306 60 269 z "},"Y":{"ha":972,"x_min":13,"x_max":947,"o":"m 293 444 l 89 860 q 58 925 74 892 q 13 979 39 963 l 13 1190 l 438 1190 l 438 1036 q 454 927 438 976 q 506 817 471 878 q 557 926 540 876 q 574 1036 574 975 l 574 1190 l 947 1190 l 947 979 q 910 945 922 961 q 882 893 899 929 l 664 469 l 664 328 q 669 253 664 276 q 704 211 674 231 l 704 0 l 253 0 l 253 211 q 290 264 281 229 q 293 296 293 275 q 293 328 293 317 l 293 444 z "},"Z":{"ha":1028,"x_min":50,"x_max":961,"o":"m 953 1190 l 953 983 l 499 256 l 556 256 q 663 285 636 256 q 689 394 689 314 l 689 500 l 961 500 l 961 0 l 50 0 l 50 215 l 503 935 l 454 935 q 342 897 365 935 q 325 776 325 871 l 325 717 l 58 717 l 58 1190 l 953 1190 z "},"[":{"ha":574,"x_min":33,"x_max":540,"o":"m 540 -262 l 33 -262 l 33 1190 l 540 1190 l 540 979 l 361 979 l 361 -51 l 540 -51 l 540 -262 z "},"]":{"ha":574,"x_min":33,"x_max":540,"o":"m 540 -262 l 33 -262 l 33 -51 l 213 -51 l 213 979 l 33 979 l 33 1190 l 540 1190 l 540 -262 z "},"_":{"ha":694,"x_min":0,"x_max":694,"o":"m 694 -297 l 0 -297 l 0 -17 l 694 -17 l 694 -297 z "},"`":{"ha":528,"x_min":119,"x_max":419,"o":"m 349 1194 l 419 978 l 261 978 l 119 1194 l 349 1194 z "},"a":{"ha":889,"x_min":29,"x_max":861,"o":"m 493 251 l 493 372 q 404 338 449 354 q 357 274 357 313 q 370 233 357 251 q 404 219 383 215 q 493 251 449 219 m 506 0 l 506 67 q 399 3 454 24 q 278 -18 344 -18 q 96 49 163 -18 q 29 232 29 115 q 100 417 29 351 q 282 507 151 464 l 493 575 l 493 606 q 481 667 493 643 q 436 692 468 692 q 386 668 400 692 q 372 606 372 644 l 372 569 l 65 569 l 65 785 q 244 867 146 842 q 456 893 343 893 q 606 877 533 893 q 729 824 679 861 q 810 703 792 775 q 821 558 821 660 l 821 314 q 826 240 821 263 q 861 196 831 218 l 861 0 l 506 0 z "},"b":{"ha":889,"x_min":21,"x_max":842,"o":"m 390 1190 l 390 839 q 473 880 428 867 q 568 893 518 893 q 776 819 707 893 q 842 618 842 750 l 842 294 q 765 61 842 135 q 486 -18 682 -18 q 264 6 360 -18 q 63 101 144 35 l 63 879 l 63 896 q 56 955 63 933 q 21 994 49 976 l 21 1190 l 390 1190 m 390 636 l 390 221 q 454 208 431 208 q 490 218 476 208 q 514 301 514 236 l 514 556 q 490 639 514 621 q 453 650 475 650 q 390 636 428 650 z "},"c":{"ha":861,"x_min":53,"x_max":808,"o":"m 501 546 l 501 574 l 501 590 q 493 654 501 633 q 442 689 479 689 q 388 651 400 689 q 381 579 381 631 l 381 300 q 388 226 381 247 q 442 186 400 186 q 493 224 479 186 q 501 297 501 247 l 501 326 l 501 372 l 808 372 l 808 101 q 629 7 744 38 q 425 -18 536 -18 q 100 103 185 -18 q 53 303 53 171 l 53 594 q 124 814 53 746 q 417 893 207 893 q 631 869 532 893 q 808 785 731 844 l 808 546 l 501 546 z "},"d":{"ha":889,"x_min":39,"x_max":858,"o":"m 492 242 l 492 633 q 432 651 464 651 q 375 617 389 651 q 367 543 367 596 l 367 350 q 375 271 367 296 q 433 226 390 226 q 492 242 465 226 m 500 0 l 500 50 q 399 -1 456 17 q 283 -18 342 -18 q 88 65 144 -18 q 39 292 39 136 l 39 621 q 105 827 39 761 q 299 893 171 893 q 399 877 347 893 q 492 829 450 861 l 492 876 l 492 910 q 484 965 492 950 q 456 994 476 981 l 456 1190 l 819 1190 l 819 292 q 824 237 819 257 q 858 196 829 217 l 858 0 l 500 0 z "},"e":{"ha":861,"x_min":42,"x_max":819,"o":"m 42 319 l 42 557 q 117 814 42 743 q 424 893 200 893 q 742 814 654 893 q 819 574 819 744 l 819 367 l 369 367 l 369 286 q 378 221 369 242 q 431 186 392 186 q 482 217 468 186 q 492 282 492 239 l 492 314 l 819 314 l 819 94 q 669 15 764 47 q 478 -18 575 -18 q 275 -4 361 -18 q 138 49 189 10 q 56 169 76 94 q 42 319 42 221 m 497 567 l 497 600 q 488 657 497 636 q 433 689 472 689 q 386 669 403 689 q 369 600 369 650 l 369 567 l 497 567 z "},"f":{"ha":528,"x_min":33,"x_max":522,"o":"m 74 675 l 33 675 l 33 875 l 74 875 q 142 1149 74 1075 q 351 1214 201 1214 q 522 1190 436 1214 l 522 1000 q 421 968 446 1000 q 401 875 401 943 l 500 875 l 500 675 l 401 675 l 401 311 q 408 235 401 261 q 447 196 414 208 l 447 0 l 33 0 l 33 196 q 68 237 63 215 q 74 306 74 258 l 74 675 z "},"g":{"ha":917,"x_min":46,"x_max":867,"o":"m 499 246 l 499 638 q 439 656 471 656 q 382 621 396 656 q 374 547 374 600 l 374 354 q 382 275 374 300 q 440 231 397 231 q 499 246 472 231 m 867 875 l 867 679 q 834 642 842 664 q 826 588 826 619 l 826 571 l 826 40 l 826 1 q 808 -172 826 -114 q 754 -265 790 -231 q 614 -336 703 -315 q 453 -351 547 -351 q 251 -331 338 -351 q 69 -258 164 -311 l 69 -49 l 374 -49 q 376 -84 374 -69 q 383 -112 378 -99 q 435 -146 400 -146 q 489 -110 475 -146 q 499 -35 499 -85 l 499 -10 l 499 46 q 406 -2 457 14 q 306 -18 356 -18 q 112 47 178 -18 q 46 254 46 113 l 46 583 q 94 810 46 739 q 290 893 151 893 q 406 877 354 893 q 507 825 458 861 l 507 875 l 867 875 z "},"h":{"ha":944,"x_min":39,"x_max":897,"o":"m 408 1190 l 408 836 q 516 880 458 867 q 631 893 574 893 q 722 877 679 893 q 792 835 765 861 q 847 744 832 796 q 858 639 858 706 l 858 311 q 863 236 858 261 q 897 196 868 211 l 897 0 l 549 0 q 534 106 538 51 q 531 239 531 161 l 531 272 l 531 528 l 531 546 q 528 577 531 563 q 521 606 526 592 q 490 637 508 625 q 450 649 472 649 q 408 639 429 649 l 408 311 q 413 235 408 260 q 449 196 418 211 l 449 0 l 40 0 l 40 196 q 75 236 69 213 q 81 306 81 260 l 81 879 l 81 896 q 74 957 81 933 q 39 994 67 981 l 39 1190 l 408 1190 z "},"i":{"ha":472,"x_min":32,"x_max":442,"o":"m 400 875 l 400 311 q 403 247 400 260 q 442 196 411 214 l 442 0 l 32 0 l 32 196 q 67 237 61 214 q 72 306 72 260 l 72 564 l 72 581 q 65 640 72 618 q 32 679 58 663 l 32 875 l 400 875 m 226 928 q 104 960 153 928 q 46 1068 46 999 q 101 1167 46 1133 q 224 1201 156 1201 q 343 1168 293 1201 q 400 1063 400 1129 q 344 961 400 999 q 226 928 294 928 z "},"j":{"ha":472,"x_min":-19,"x_max":411,"o":"m 411 875 l 411 36 l 411 -25 q 406 -133 411 -87 q 383 -214 401 -179 q 308 -296 360 -264 q 146 -337 243 -337 q -19 -312 76 -337 l -19 -117 q 57 -100 39 -117 q 83 8 83 -76 l 83 565 l 83 582 q 76 641 83 618 q 43 681 69 664 l 43 875 l 411 875 m 231 929 q 108 961 157 929 q 50 1069 50 1000 q 105 1169 50 1135 q 228 1203 160 1203 q 347 1169 297 1203 q 404 1064 404 1131 q 349 963 404 1000 q 231 929 299 929 z "},"k":{"ha":917,"x_min":33,"x_max":889,"o":"m 401 1190 l 401 606 l 460 674 q 498 735 490 708 q 506 807 506 763 l 506 840 l 506 875 l 872 875 l 872 679 q 844 665 858 672 q 807 632 824 653 l 706 504 l 797 315 q 831 247 829 250 q 889 196 853 213 l 889 0 l 593 0 l 404 381 l 401 311 q 406 240 401 261 q 442 196 411 218 l 442 0 l 33 0 l 33 196 q 68 239 63 218 q 74 306 74 260 l 74 879 l 74 896 q 67 953 74 931 q 33 994 60 975 l 33 1190 l 401 1190 z "},"l":{"ha":472,"x_min":32,"x_max":440,"o":"m 400 1190 l 400 311 q 405 235 400 260 q 440 196 410 211 l 440 0 l 32 0 l 32 196 q 67 237 61 214 q 72 306 72 260 l 72 879 l 72 896 q 65 956 72 933 q 32 994 58 978 l 32 1190 l 400 1190 z "},"m":{"ha":1389,"x_min":40,"x_max":1349,"o":"m 394 875 l 394 822 q 514 876 456 858 q 621 893 572 893 q 731 869 682 893 q 815 810 781 846 q 943 875 882 856 q 1061 894 1004 894 q 1194 863 1133 894 q 1263 806 1243 838 q 1303 703 1293 765 q 1308 589 1308 667 l 1308 311 q 1313 240 1308 260 q 1349 196 1318 219 l 1349 0 l 999 0 q 984 106 988 51 q 981 239 981 161 l 981 272 l 981 485 q 974 603 981 579 q 911 647 961 647 q 858 639 890 647 l 858 311 q 863 240 858 260 q 899 196 868 219 l 899 0 l 549 0 q 534 106 538 51 q 531 239 531 161 l 531 272 l 531 485 q 524 603 531 579 q 461 647 511 647 q 408 639 440 647 l 408 311 q 413 238 408 260 q 449 196 418 217 l 449 0 l 40 0 l 40 196 q 75 237 69 215 q 81 306 81 258 l 81 564 l 81 581 q 74 640 81 617 q 40 679 67 663 l 40 875 l 394 875 z "},"n":{"ha":944,"x_min":44,"x_max":901,"o":"m 399 875 l 399 821 q 517 878 460 863 q 635 893 575 893 q 726 877 683 893 q 796 835 769 861 q 851 744 836 796 q 863 639 863 706 l 863 311 q 867 236 863 261 q 901 196 872 211 l 901 0 l 553 0 q 538 106 542 51 q 535 239 535 161 l 535 272 l 535 528 l 535 546 q 533 577 535 563 q 525 606 531 592 q 494 637 513 625 q 454 649 476 649 q 413 639 433 649 l 413 311 q 417 235 413 260 q 453 196 422 211 l 453 0 l 44 0 l 44 196 q 79 236 74 213 q 85 306 85 260 l 85 571 l 85 588 q 78 641 85 622 q 44 679 71 660 l 44 875 l 399 875 z "},"o":{"ha":860,"x_min":40,"x_max":819,"o":"m 819 561 l 819 333 q 808 185 819 236 q 737 58 790 104 q 597 -6 683 13 q 442 -18 536 -18 q 290 -8 354 -18 q 147 40 199 6 q 54 169 76 88 q 40 333 40 221 l 40 561 q 50 703 40 660 q 122 821 67 778 q 248 878 176 864 q 408 893 319 893 q 577 883 500 893 q 707 842 654 872 q 803 719 778 799 q 819 561 819 667 m 368 558 l 368 306 q 374 229 368 249 q 429 186 386 186 q 485 228 472 186 q 492 306 492 250 l 492 558 l 492 592 q 482 657 492 635 q 431 689 468 689 q 380 659 392 689 q 368 583 368 629 l 368 558 z "},"p":{"ha":917,"x_min":35,"x_max":856,"o":"m 403 632 l 403 240 q 463 222 431 222 q 519 257 506 222 q 528 331 528 278 l 528 524 q 519 603 528 578 q 461 647 504 647 q 403 632 429 647 m 394 875 l 394 825 q 496 876 439 858 q 611 893 553 893 q 731 873 679 893 q 817 803 783 853 q 850 711 840 774 q 856 607 856 674 l 856 564 l 856 285 q 849 188 856 232 q 808 72 836 110 q 720 3 774 25 q 603 -18 667 -18 q 497 -2 549 -18 q 403 46 444 14 l 403 0 q 408 -74 403 -51 q 443 -115 413 -96 l 443 -314 l 35 -314 l 35 -115 q 67 -76 60 -99 q 75 -21 75 -53 l 75 0 l 75 561 l 75 578 q 68 637 75 614 q 35 676 61 660 l 35 875 l 394 875 z "},"q":{"ha":889,"x_min":38,"x_max":858,"o":"m 490 239 l 490 631 q 431 649 463 649 q 374 614 388 649 q 365 540 365 593 l 365 347 q 374 268 365 293 q 432 224 389 224 q 490 239 464 224 m 818 875 l 818 -1 q 823 -75 818 -53 q 858 -117 828 -97 l 858 -315 l 450 -315 l 450 -117 q 483 -77 475 -100 q 490 -22 490 -54 l 490 -1 l 490 46 q 397 -2 449 14 q 290 -18 344 -18 q 172 3 224 -18 q 85 72 121 24 q 51 158 64 100 q 38 285 38 215 l 38 564 l 38 607 q 45 722 38 672 q 76 803 53 772 q 161 873 110 853 q 282 893 213 893 q 398 877 346 893 q 499 825 450 861 l 499 875 l 818 875 z "},"r":{"ha":611,"x_min":33,"x_max":567,"o":"m 386 875 l 386 806 q 445 874 414 853 q 528 894 476 894 l 567 890 l 567 592 l 540 592 q 428 547 460 592 q 401 425 401 511 l 401 340 q 402 292 401 317 q 407 247 403 268 q 419 216 411 225 q 449 196 426 207 l 449 0 l 33 0 l 33 199 q 66 238 58 215 q 74 293 74 261 l 74 314 l 74 561 l 74 578 q 67 637 74 614 q 33 676 60 660 l 33 875 l 386 875 z "},"s":{"ha":833,"x_min":31,"x_max":803,"o":"m 354 326 l 354 306 q 360 228 354 246 q 419 186 372 186 q 464 206 446 186 q 482 253 482 225 q 425 329 482 303 q 324 358 403 339 q 82 458 133 403 q 31 614 31 513 q 53 741 31 688 q 132 833 75 794 q 247 879 181 865 q 385 893 313 893 q 599 867 501 893 q 779 779 697 842 l 779 571 l 475 571 l 475 603 q 463 661 475 640 q 410 689 446 689 q 365 672 383 689 q 346 629 346 654 q 393 568 346 589 q 476 546 414 558 q 704 474 647 510 q 803 268 803 411 q 690 40 803 111 q 429 -18 597 -18 q 226 7 321 -18 q 46 100 111 38 l 46 326 l 354 326 z "},"t":{"ha":528,"x_min":21,"x_max":497,"o":"m 389 1139 l 389 875 l 497 875 l 497 675 l 389 675 l 389 340 q 401 239 389 260 q 497 199 421 207 l 497 0 l 333 -12 q 219 -3 264 -12 q 119 47 156 11 q 72 128 82 83 q 61 238 61 174 l 61 267 l 61 675 l 21 675 l 21 875 l 61 875 l 61 1046 l 389 1139 z "},"u":{"ha":917,"x_min":15,"x_max":871,"o":"m 54 321 l 54 564 l 54 581 q 47 638 54 615 q 15 679 40 660 l 15 875 l 364 875 q 378 795 374 839 q 382 708 382 751 l 382 363 q 388 274 382 294 q 450 224 401 224 q 476 227 465 224 q 503 239 486 231 l 503 564 l 503 581 q 496 640 503 618 q 463 679 489 663 l 463 875 l 831 875 l 831 311 q 835 238 831 260 q 871 196 840 215 l 871 0 l 517 0 l 517 57 q 290 -18 417 -18 q 169 7 225 -18 q 85 85 114 32 q 60 163 67 117 q 54 261 54 208 l 54 321 z "},"v":{"ha":861,"x_min":13,"x_max":849,"o":"m 493 679 l 493 875 l 849 875 l 849 679 q 813 635 825 661 q 793 578 806 621 l 622 0 l 236 0 l 75 551 q 54 621 64 586 q 13 679 39 661 l 13 875 l 417 875 l 417 679 q 396 661 403 671 q 389 636 389 651 q 399 578 389 615 l 454 338 l 513 578 q 521 635 521 618 q 515 660 521 651 q 493 679 508 668 z "},"w":{"ha":1276,"x_min":17,"x_max":1260,"o":"m 907 679 l 907 875 l 1260 875 l 1260 679 q 1217 618 1233 660 q 1194 542 1211 603 l 1046 0 l 728 0 l 639 336 l 546 0 l 232 0 l 79 563 q 60 628 67 613 q 17 679 44 661 l 17 875 l 431 875 l 431 679 q 401 658 411 669 q 396 629 392 646 l 439 428 l 558 875 l 776 875 l 896 428 l 942 629 q 935 657 946 644 q 907 679 925 669 z "},"x":{"ha":833,"x_min":11,"x_max":824,"o":"m 74 251 l 219 450 l 110 594 q 71 643 81 633 q 17 676 49 664 l 17 875 l 385 875 l 385 842 l 385 803 q 392 736 385 756 q 439 669 400 717 l 444 678 q 484 750 479 733 q 489 832 489 767 l 489 875 l 806 875 l 806 676 q 774 652 789 667 q 726 594 760 638 l 618 450 l 735 282 q 772 233 758 249 q 824 196 799 204 l 824 0 l 439 0 l 439 33 l 439 67 q 431 158 439 126 q 385 238 422 189 q 331 153 339 183 q 322 42 322 122 l 322 0 l 11 0 l 11 196 q 38 208 28 200 q 74 251 47 217 z "},"y":{"ha":861,"x_min":11,"x_max":851,"o":"m 494 679 l 494 875 l 851 875 l 851 679 q 806 608 822 660 q 790 556 794 571 l 635 29 q 499 -253 569 -193 q 307 -314 428 -314 q 231 -310 265 -314 q 156 -294 196 -306 l 156 -104 q 236 -85 204 -104 q 285 -22 268 -67 l 72 581 q 51 638 54 633 q 11 679 39 664 l 11 875 l 429 875 l 429 679 q 399 660 406 668 q 393 638 393 651 q 397 611 393 628 q 404 581 400 594 l 468 374 l 519 581 q 526 614 522 594 q 531 638 531 633 q 525 660 531 651 q 494 679 519 668 z "},"z":{"ha":833,"x_min":26,"x_max":807,"o":"m 26 0 l 26 207 l 392 675 l 360 675 l 336 675 q 294 671 310 675 q 269 647 279 667 q 260 571 260 628 l 260 550 l 32 550 l 32 875 l 799 875 l 799 678 l 428 207 l 461 207 l 485 207 q 528 211 513 207 q 553 229 544 215 q 564 269 561 243 q 567 314 567 294 l 567 340 l 807 340 l 807 0 l 26 0 z "},"{":{"ha":574,"x_min":40,"x_max":581,"o":"m 463 228 l 463 -67 q 488 -193 463 -149 q 581 -256 514 -237 l 560 -256 q 210 -194 285 -256 q 158 -4 158 -153 l 158 275 q 135 402 158 363 q 40 463 111 442 q 132 525 106 482 q 158 650 158 568 l 158 967 q 228 1155 158 1117 q 581 1193 299 1193 q 488 1126 513 1169 q 463 999 463 1082 l 463 681 q 439 538 463 582 q 332 465 410 483 q 435 392 408 443 q 463 228 463 342 z "},"}":{"ha":574,"x_min":-7,"x_max":533,"o":"m 111 -67 l 111 228 q 138 393 111 344 q 242 463 165 442 q 138 533 165 482 q 111 681 111 583 l 111 999 q 87 1126 111 1085 q -7 1190 63 1168 l 32 1190 q 350 1151 285 1190 q 415 967 415 1111 l 415 650 q 441 525 415 567 q 533 465 467 483 q 438 403 461 443 q 415 275 415 363 l 415 -4 q 363 -197 415 -156 q -7 -258 285 -258 q 85 -194 60 -237 q 111 -67 111 -150 z "},"":{"ha":1278,"x_min":15,"x_max":1221,"o":"m 850 365 l 850 442 q 833 481 850 467 q 794 494 817 494 q 747 483 768 494 q 714 457 735 476 l 714 0 l 303 0 l 303 211 q 335 250 328 226 q 343 307 343 274 l 343 328 l 343 938 q 292 917 306 938 q 278 853 278 897 l 278 653 l 15 653 l 15 1190 l 1042 1190 l 1042 788 l 779 788 l 779 853 q 765 917 779 896 q 714 938 751 938 l 714 689 q 822 738 776 722 q 963 758 888 758 q 1147 681 1074 758 q 1221 479 1221 603 l 1221 365 l 1221 328 q 1213 196 1221 239 q 1156 76 1199 124 q 1025 -4 1104 19 q 872 -24 961 -24 q 822 -21 851 -24 q 769 -15 793 -18 l 769 218 q 840 272 824 231 q 850 365 850 297 z "},"":{"ha":917,"x_min":60,"x_max":901,"o":"m 60 1190 l 901 1190 l 901 653 l 586 653 l 586 806 q 565 915 586 893 q 493 938 544 938 l 471 938 l 471 328 q 476 253 471 276 q 511 211 481 231 l 511 0 l 60 0 l 60 211 q 92 250 85 226 q 100 307 100 274 l 100 328 l 100 863 l 100 879 q 93 940 100 917 q 60 979 86 963 l 60 1190 m 413 1510 l 642 1510 l 499 1293 l 342 1293 l 413 1510 z "},"‚":{"ha":472,"x_min":96,"x_max":388,"o":"m 201 -190 l 139 -133 q 189 -71 169 -100 q 228 1 214 -35 q 133 38 171 1 q 96 132 96 74 q 136 231 96 193 q 238 268 176 268 q 347 221 306 268 q 388 104 388 174 q 326 -61 388 26 q 201 -190 276 -132 z "},"ƒ":{"ha":806,"x_min":43,"x_max":794,"o":"m 794 875 l 794 450 l 507 450 l 507 578 q 497 647 507 631 q 425 675 482 675 l 411 675 l 411 306 q 416 234 411 256 q 451 196 421 213 l 451 0 l 43 0 l 43 196 q 78 236 72 213 q 83 306 83 260 l 83 569 l 83 586 q 76 643 83 622 q 43 679 69 664 l 43 875 l 794 875 m 343 1194 l 572 1194 l 429 978 l 272 978 l 343 1194 z "},"„":{"ha":833,"x_min":96,"x_max":744,"o":"m 558 -190 l 496 -133 q 546 -71 526 -100 q 585 1 571 -35 q 490 38 528 1 q 453 132 453 74 q 493 231 453 193 q 594 268 533 268 q 703 221 663 268 q 744 104 744 174 q 683 -61 744 26 q 558 -190 633 -132 m 201 -190 l 139 -133 q 189 -71 169 -100 q 228 1 214 -35 q 133 38 171 1 q 96 132 96 74 q 136 231 96 193 q 238 268 176 268 q 347 221 306 268 q 388 104 388 174 q 326 -61 388 26 q 201 -190 276 -132 z "},"…":{"ha":1389,"x_min":72,"x_max":1317,"o":"m 231 -24 q 118 24 164 -24 q 72 139 72 71 q 119 251 72 206 q 233 297 167 297 q 345 252 299 297 q 392 140 392 207 q 345 24 392 72 q 231 -24 299 -24 m 693 -22 q 581 25 626 -22 q 535 140 535 72 q 582 253 535 207 q 696 299 629 299 q 808 253 761 299 q 854 142 854 208 q 808 26 854 74 q 693 -22 761 -22 m 1156 -17 q 1043 31 1089 -17 q 997 146 997 78 q 1044 258 997 213 q 1158 304 1092 304 q 1270 259 1224 304 q 1317 147 1317 214 q 1270 31 1317 79 q 1156 -17 1224 -17 z "},"Š":{"ha":1472,"x_min":3,"x_max":1440,"o":"m 928 597 l 928 249 l 963 249 q 1056 293 1036 249 q 1068 424 1068 322 q 1057 551 1068 525 q 963 597 1038 597 l 928 597 m 517 0 l 517 211 q 549 250 542 226 q 557 307 557 274 l 557 328 l 557 958 l 415 958 l 415 365 l 415 328 q 408 196 415 239 q 361 76 397 126 q 254 -4 319 19 q 128 -24 201 -24 q 88 -22 103 -24 q 3 -6 74 -19 l 3 218 q 122 263 96 218 q 139 371 139 290 l 139 863 l 139 879 q 132 940 139 917 q 99 979 125 963 l 99 1190 l 968 1190 l 968 979 q 935 940 943 964 q 928 883 928 917 l 928 863 l 928 849 l 1060 849 q 1363 750 1275 849 q 1439 482 1439 664 l 1439 388 q 1440 350 1440 368 q 1422 213 1440 272 q 1322 63 1393 117 q 1169 7 1267 19 q 1001 0 1118 0 l 517 0 z "},"‹":{"ha":472,"x_min":90,"x_max":401,"o":"m 207 714 l 401 714 l 285 472 l 401 246 l 207 246 l 90 472 l 207 714 z "},"Œ":{"ha":1528,"x_min":60,"x_max":1496,"o":"m 983 597 l 983 249 l 1018 249 q 1111 293 1092 249 q 1124 424 1124 322 q 1113 551 1124 525 q 1018 597 1093 597 l 983 597 m 572 0 l 572 211 q 605 250 597 226 q 613 307 613 274 l 613 328 l 613 503 l 471 503 l 471 328 q 476 253 471 276 q 511 211 481 231 l 511 0 l 60 0 l 60 211 q 92 250 85 226 q 100 307 100 274 l 100 328 l 100 863 l 100 879 q 93 940 100 917 q 60 979 86 963 l 60 1190 l 511 1190 l 511 979 q 478 940 486 964 q 471 883 471 917 l 471 863 l 471 735 l 613 735 l 613 863 l 613 879 q 606 940 613 917 q 572 979 599 963 l 572 1190 l 1024 1190 l 1024 979 q 991 940 999 964 q 983 883 983 917 l 983 863 l 983 849 l 1115 849 q 1418 750 1331 849 q 1494 482 1494 664 l 1494 388 q 1496 350 1496 368 q 1478 213 1496 272 q 1378 63 1449 117 q 1225 7 1322 19 q 1057 0 1174 0 l 572 0 z "},"":{"ha":1056,"x_min":57,"x_max":1043,"o":"m 785 653 l 960 306 q 989 254 979 268 q 1043 211 1008 229 l 1043 0 l 618 0 l 618 142 q 600 263 618 218 q 564 336 578 306 l 471 517 l 468 328 q 473 253 468 276 q 508 211 478 231 l 508 0 l 57 0 l 57 211 q 90 250 82 226 q 97 307 97 274 l 97 328 l 97 863 l 97 879 q 90 940 97 917 q 57 979 83 963 l 57 1190 l 508 1190 l 508 979 q 476 940 483 964 q 468 883 468 917 l 468 863 l 468 710 l 556 847 q 609 943 600 921 q 618 1003 618 965 l 618 1190 l 1021 1190 l 1021 979 q 974 951 989 965 q 943 908 960 936 l 785 653 m 454 1510 l 683 1510 l 540 1293 l 383 1293 l 454 1510 z "},"":{"ha":1306,"x_min":15,"x_max":1261,"o":"m 714 457 l 714 328 q 719 253 714 276 q 754 211 724 231 l 754 0 l 303 0 l 303 211 q 335 250 328 226 q 343 307 343 274 l 343 328 l 343 938 q 292 917 306 938 q 278 853 278 897 l 278 653 l 15 653 l 15 1190 l 1042 1190 l 1042 788 l 779 788 l 779 853 q 765 917 779 896 q 714 938 751 938 l 714 689 q 822 738 776 722 q 963 758 888 758 q 1147 681 1074 758 q 1221 479 1221 603 l 1221 328 q 1226 253 1221 276 q 1261 211 1231 231 l 1261 0 l 810 0 l 810 211 q 842 250 835 226 q 850 307 850 274 l 850 328 l 850 442 q 833 481 850 467 q 794 494 817 494 q 747 483 768 494 q 714 457 735 476 z "},"":{"ha":1083,"x_min":60,"x_max":1024,"o":"m 681 0 l 681 -214 l 403 -214 l 403 0 l 60 0 l 60 211 q 92 250 85 226 q 100 307 100 274 l 100 328 l 100 863 l 100 879 q 93 940 100 917 q 60 979 86 963 l 60 1190 l 511 1190 l 511 979 q 478 940 486 964 q 471 883 471 917 l 471 863 l 471 232 l 613 232 l 613 863 l 613 879 q 606 940 613 917 q 572 979 599 963 l 572 1190 l 1024 1190 l 1024 979 q 991 940 999 964 q 983 883 983 917 l 983 863 l 983 328 l 983 303 q 990 247 983 268 q 1024 211 997 226 l 1024 0 l 681 0 z "},"":{"ha":917,"x_min":21,"x_max":858,"o":"m 858 36 l 858 -25 q 853 -133 858 -87 q 831 -214 849 -179 q 756 -296 807 -264 q 593 -337 690 -337 q 428 -312 524 -337 l 428 -117 q 504 -100 486 -117 q 531 8 531 -76 l 531 306 q 528 328 529 321 q 521 350 526 336 q 490 381 508 369 q 450 393 472 393 q 408 383 429 393 l 408 311 q 413 235 408 260 q 449 196 418 211 l 449 0 l 40 0 l 40 196 q 75 236 69 213 q 81 306 81 260 l 81 675 l 21 675 l 21 875 l 81 875 l 81 893 q 74 957 81 933 q 39 994 67 981 l 39 1190 l 408 1190 l 408 875 l 714 875 l 714 675 l 408 675 l 408 581 q 516 624 458 611 q 631 638 574 638 q 722 622 679 638 q 792 579 765 606 q 847 489 832 540 q 858 383 858 450 l 858 36 z "},"‘":{"ha":472,"x_min":90,"x_max":382,"o":"m 276 1214 l 339 1157 q 289 1094 308 1124 q 250 1022 264 1058 q 344 986 307 1022 q 382 892 382 950 q 342 793 382 831 q 240 756 301 756 q 131 803 172 756 q 90 919 90 850 q 151 1085 90 997 q 276 1214 201 1156 z "},"’":{"ha":472,"x_min":90,"x_max":382,"o":"m 196 756 l 133 813 q 183 875 164 846 q 222 947 208 911 q 128 983 165 947 q 90 1078 90 1019 q 131 1176 90 1139 q 232 1214 171 1214 q 341 1167 300 1214 q 382 1050 382 1119 q 321 885 382 972 q 196 756 271 814 z "},"“":{"ha":833,"x_min":94,"x_max":743,"o":"m 638 1214 l 700 1157 q 650 1094 669 1124 q 611 1022 625 1058 q 706 986 668 1022 q 743 892 743 950 q 703 793 743 831 q 601 756 663 756 q 492 803 533 756 q 451 919 451 850 q 513 1085 451 997 q 638 1214 563 1156 m 281 1214 l 343 1157 q 293 1094 313 1124 q 254 1022 268 1058 q 349 986 311 1022 q 386 892 386 950 q 346 793 386 831 q 244 756 306 756 q 135 803 176 756 q 94 919 94 850 q 156 1085 94 997 q 281 1214 206 1156 z "},"”":{"ha":833,"x_min":94,"x_max":743,"o":"m 557 756 l 494 813 q 544 875 525 846 q 583 947 569 911 q 489 983 526 947 q 451 1078 451 1019 q 492 1176 451 1139 q 593 1214 532 1214 q 702 1167 661 1214 q 743 1050 743 1119 q 682 885 743 972 q 557 756 632 814 m 200 756 l 138 813 q 188 875 168 846 q 226 947 213 911 q 132 983 169 947 q 94 1078 94 1019 q 135 1176 94 1139 q 236 1214 175 1214 q 345 1167 304 1214 q 386 1050 386 1119 q 325 885 386 972 q 200 756 275 814 z "},"•":{"ha":544,"x_min":53,"x_max":492,"o":"m 272 735 q 427 672 363 735 q 492 515 492 608 q 428 358 492 421 q 272 296 364 296 q 117 359 182 296 q 53 515 53 422 q 117 672 53 610 q 272 735 181 735 z "},"–":{"ha":694,"x_min":0,"x_max":694,"o":"m 694 332 l 0 332 l 0 613 l 694 613 l 694 332 z "},"—":{"ha":1389,"x_min":0,"x_max":1389,"o":"m 1389 332 l 0 332 l 0 613 l 1389 613 l 1389 332 z "},"™":{"ha":1258,"x_min":40,"x_max":1231,"o":"m 515 1190 l 515 1068 l 351 1068 l 351 629 l 201 629 l 201 1068 l 40 1068 l 40 1190 l 515 1190 m 808 1190 l 907 914 l 1006 1190 l 1231 1190 l 1231 629 l 1081 629 l 1081 1026 l 943 629 l 871 629 l 736 1026 l 733 629 l 583 629 l 583 1190 l 808 1190 z "},"š":{"ha":1250,"x_min":3,"x_max":1247,"o":"m 822 196 q 896 214 872 196 q 919 282 919 232 q 897 350 919 332 q 822 368 875 368 l 806 368 l 806 196 l 822 196 m 806 569 l 922 569 q 1160 503 1079 569 q 1247 282 1247 431 q 1163 68 1247 136 q 922 0 1079 0 l 438 0 l 438 196 q 470 231 463 208 q 478 285 478 253 l 478 306 l 478 672 l 356 672 l 356 288 l 356 253 q 347 135 356 179 q 305 52 339 92 q 218 -3 271 13 q 101 -18 165 -18 q 63 -15 83 -18 q 3 -6 43 -12 l 3 203 q 96 239 74 203 q 111 336 111 264 l 111 569 l 111 586 q 104 643 111 622 q 71 679 97 664 l 71 875 l 846 875 l 846 679 q 813 641 821 664 q 806 586 806 618 l 806 569 z "},"›":{"ha":472,"x_min":71,"x_max":382,"o":"m 265 231 l 71 231 l 188 472 l 71 699 l 265 699 l 382 472 l 265 231 z "},"œ":{"ha":1306,"x_min":43,"x_max":1303,"o":"m 878 196 q 951 214 928 196 q 975 282 975 232 q 953 350 975 332 q 878 368 931 368 l 861 368 l 861 196 l 878 196 m 861 569 l 978 569 q 1215 503 1135 569 q 1303 282 1303 431 q 1219 68 1303 136 q 978 0 1135 0 l 501 0 l 501 196 q 527 225 521 206 q 533 272 533 244 l 533 306 l 533 347 l 411 347 l 411 306 l 411 272 q 417 225 411 244 q 443 196 424 206 l 443 0 l 43 0 l 43 196 q 78 236 72 213 q 83 306 83 260 l 83 569 l 83 586 q 76 643 83 622 q 43 679 69 664 l 43 875 l 443 875 l 443 679 q 417 650 424 669 q 411 603 411 631 l 411 569 l 411 550 l 533 550 l 533 569 l 533 603 q 528 651 533 633 q 501 679 522 668 l 501 875 l 901 875 l 901 679 q 869 641 876 664 q 861 586 861 618 l 861 569 z "},"":{"ha":917,"x_min":43,"x_max":907,"o":"m 411 578 l 469 661 q 508 738 501 707 q 515 838 515 768 l 515 875 l 882 875 l 882 679 q 817 632 849 672 l 701 490 l 807 315 q 850 244 828 279 q 907 196 874 214 l 907 0 l 603 0 l 414 381 l 411 311 q 416 240 411 261 q 451 196 421 218 l 451 0 l 43 0 l 43 196 q 78 239 72 218 q 83 306 83 260 l 83 564 l 83 581 q 76 638 83 615 q 43 679 69 660 l 43 875 l 411 875 l 411 578 m 385 1194 l 614 1194 l 471 978 l 314 978 l 385 1194 z "},"":{"ha":944,"x_min":21,"x_max":897,"o":"m 81 875 l 81 893 q 74 957 81 933 q 39 994 67 981 l 39 1190 l 408 1190 l 408 875 l 714 875 l 714 675 l 408 675 l 408 581 q 516 624 458 611 q 631 638 574 638 q 722 622 679 638 q 792 579 765 606 q 847 489 832 540 q 858 383 858 450 l 858 311 q 863 236 858 261 q 897 196 868 211 l 897 0 l 549 0 q 534 106 538 51 q 531 239 531 161 l 531 272 q 531 289 531 283 q 528 322 531 307 q 521 350 526 336 q 490 381 508 369 q 450 393 472 393 q 408 383 429 393 l 408 311 q 413 235 408 260 q 449 196 418 211 l 449 0 l 40 0 l 40 196 q 75 236 69 213 q 81 306 81 260 l 81 675 l 21 675 l 21 875 l 81 875 z "},"Ÿ":{"ha":944,"x_min":43,"x_max":901,"o":"m 611 0 l 611 -214 l 333 -214 l 333 0 l 43 0 l 43 196 q 78 236 72 213 q 83 306 83 260 l 83 569 l 83 586 q 76 643 83 622 q 43 679 69 664 l 43 875 l 443 875 l 443 679 q 417 649 424 669 q 411 597 411 628 l 411 564 l 411 207 l 533 207 l 533 564 l 533 597 q 528 649 533 629 q 501 679 522 668 l 501 875 l 901 875 l 901 679 q 869 641 876 664 q 861 586 861 618 l 861 569 l 861 306 q 866 234 861 254 q 901 196 871 214 l 901 0 l 611 0 z "}," ":{"ha":694,"x_min":0,"x_max":0,"o":""},"¡":{"ha":972,"x_min":13,"x_max":958,"o":"m 69 900 q 44 943 57 921 q 13 979 29 965 l 13 1190 l 467 1190 l 467 1058 q 467 988 467 1022 q 490 889 469 946 l 531 779 l 569 889 q 590 963 586 936 q 593 1058 593 990 l 593 1190 l 958 1190 l 958 979 q 918 933 938 960 q 892 885 899 907 l 711 371 q 629 164 660 222 q 518 26 581 69 q 335 -24 446 -24 q 208 -6 269 -24 l 208 218 q 304 237 272 218 q 357 313 336 256 l 69 900 m 714 1496 q 643 1333 714 1393 q 486 1279 579 1279 q 329 1333 393 1279 q 258 1496 258 1393 l 375 1496 q 410 1418 375 1447 q 486 1393 440 1393 q 565 1419 532 1393 q 597 1496 597 1446 l 714 1496 z "},"¢":{"ha":861,"x_min":11,"x_max":851,"o":"m 494 875 l 851 875 l 851 679 q 806 608 822 660 q 790 556 794 571 l 635 29 q 499 -253 569 -193 q 307 -314 428 -314 q 231 -310 265 -314 q 156 -294 196 -306 l 156 -104 q 236 -85 204 -104 q 285 -22 268 -67 l 72 581 q 51 638 54 633 q 11 679 39 664 l 11 875 l 429 875 l 429 679 q 399 660 406 668 q 393 638 393 651 q 397 611 393 628 q 404 581 400 594 l 468 374 l 519 581 q 526 614 522 594 q 531 638 531 633 q 525 660 531 651 q 494 679 519 668 l 494 875 m 658 1192 q 588 1029 658 1089 q 431 975 524 975 q 274 1029 338 975 q 203 1192 203 1089 l 319 1192 q 354 1114 319 1143 q 431 1089 385 1089 q 509 1115 476 1089 q 542 1192 542 1142 l 658 1192 z "},"£":{"ha":583,"x_min":1,"x_max":550,"o":"m 1 -6 l 1 218 q 121 263 93 218 q 139 371 139 292 l 139 863 l 139 879 q 132 940 139 917 q 99 979 125 963 l 99 1190 l 550 1190 l 550 979 q 517 940 525 964 q 510 883 510 917 l 510 863 l 510 365 l 510 328 q 494 167 510 218 q 443 76 478 115 q 313 -4 392 19 q 160 -24 249 -24 q 110 -22 128 -24 q 1 -6 92 -19 z "},"¥":{"ha":917,"x_min":60,"x_max":901,"o":"m 901 653 l 586 653 l 586 806 q 565 915 586 893 q 493 938 544 938 l 471 938 l 471 328 q 476 253 471 276 q 511 211 481 231 l 511 0 l 60 0 l 60 211 q 92 250 85 226 q 100 307 100 274 l 100 328 l 100 863 l 100 879 q 93 940 100 917 q 60 979 86 963 l 60 1190 l 625 1190 l 625 1404 l 901 1404 l 901 653 z "},"¨":{"ha":972,"x_min":51,"x_max":943,"o":"m 943 431 l 943 0 l 51 0 l 51 211 q 84 250 76 226 q 92 307 92 274 l 92 328 l 92 863 l 92 879 q 85 940 92 917 q 51 979 78 963 l 51 1190 l 943 1190 l 943 788 l 601 788 l 601 824 q 583 911 601 889 q 490 938 561 938 l 468 938 l 468 725 l 703 725 l 703 493 l 468 493 l 468 253 l 490 253 q 588 285 568 253 q 601 392 601 307 l 601 431 l 943 431 m 640 1279 q 559 1315 592 1279 q 526 1400 526 1350 q 561 1479 526 1444 q 642 1514 596 1514 q 726 1481 690 1514 q 761 1400 761 1449 q 727 1313 761 1347 q 640 1279 693 1279 m 329 1279 q 248 1315 281 1279 q 215 1400 215 1350 q 250 1479 215 1444 q 331 1514 285 1514 q 415 1481 379 1514 q 450 1400 450 1449 q 416 1313 450 1347 q 329 1279 382 1279 z "},"©":{"ha":1306,"x_min":33,"x_max":1271,"o":"m 653 -24 q 214 157 394 -24 q 33 596 33 338 q 214 1033 33 853 q 653 1214 394 1214 q 1090 1033 910 1214 q 1271 596 1271 853 q 1090 157 1271 338 q 653 -24 910 -24 m 653 143 q 972 276 839 143 q 1104 596 1104 408 q 972 915 1104 783 q 653 1047 840 1047 q 332 915 464 1047 q 200 596 200 783 q 333 276 200 408 q 653 143 465 143 m 979 725 l 804 725 q 761 799 804 769 q 660 828 718 828 q 543 764 576 828 q 515 601 515 711 q 542 440 515 492 q 660 375 575 375 q 762 404 719 375 q 804 478 804 433 l 979 478 q 875 290 956 351 q 781 242 835 260 q 663 225 726 225 q 403 324 504 225 q 296 601 296 428 q 403 879 296 775 q 663 978 504 978 q 876 917 799 978 q 979 725 954 857 z "},"ª":{"ha":972,"x_min":50,"x_max":915,"o":"m 915 103 q 737 10 843 43 q 515 -24 631 -24 q 298 0 393 -24 q 149 75 203 24 q 61 238 81 139 q 50 426 50 293 l 50 840 q 67 994 50 938 q 151 1124 90 1072 q 300 1192 207 1169 q 504 1214 393 1214 q 717 1180 610 1214 q 915 1085 824 1146 l 915 794 l 557 794 l 557 825 l 557 856 q 540 935 557 914 q 489 957 522 957 q 431 924 446 957 q 421 853 421 901 l 421 825 l 421 732 l 660 732 l 660 497 l 421 497 l 421 365 l 421 335 q 438 255 421 276 q 489 233 456 233 q 547 267 532 233 q 557 338 557 289 l 557 365 l 557 435 l 915 435 l 915 103 z "},"«":{"ha":722,"x_min":60,"x_max":651,"o":"m 457 714 l 651 714 l 535 472 l 651 246 l 457 246 l 340 472 l 457 714 m 176 714 l 371 714 l 254 472 l 371 246 l 176 246 l 60 472 l 176 714 z "},"­":{"ha":472,"x_min":100,"x_max":556,"o":"m 556 1233 l 556 1125 l 100 1125 l 100 1233 l 556 1233 z "},"®":{"ha":1306,"x_min":33,"x_max":1271,"o":"m 653 -24 q 215 158 396 -24 q 33 596 33 339 q 215 1033 33 851 q 653 1214 396 1214 q 1089 1032 907 1214 q 1271 596 1271 850 q 1090 159 1271 342 q 653 -24 908 -24 m 653 143 q 972 276 839 143 q 1104 596 1104 408 q 972 915 1104 783 q 653 1047 840 1047 q 332 915 464 1047 q 200 596 200 783 q 333 276 200 408 q 653 143 465 143 m 797 561 l 939 286 l 761 286 l 629 561 l 546 561 l 546 286 l 388 286 l 388 938 l 706 938 q 805 932 761 938 q 882 908 849 926 q 940 838 922 881 q 958 739 958 794 q 797 561 958 561 m 546 675 l 700 675 q 771 689 750 675 q 799 754 799 707 q 736 819 799 808 q 672 824 713 824 l 546 824 l 546 675 z "},"¯":{"ha":556,"x_min":7,"x_max":553,"o":"m 93 328 l 93 863 l 93 879 q 86 940 93 917 q 53 979 79 963 l 53 1190 l 504 1190 l 504 979 q 472 940 479 964 q 464 883 464 917 l 464 863 l 464 328 q 469 253 464 276 q 504 211 474 231 l 504 0 l 53 0 l 53 211 q 85 250 78 226 q 93 307 93 274 l 93 328 m 553 1400 q 519 1313 553 1347 q 432 1279 485 1279 q 351 1315 383 1279 q 318 1400 318 1350 q 353 1479 318 1444 q 433 1514 388 1514 q 517 1481 482 1514 q 553 1400 553 1449 m 242 1400 q 208 1313 242 1347 q 121 1279 174 1279 q 40 1315 72 1279 q 7 1400 7 1350 q 42 1479 7 1444 q 122 1514 76 1514 q 206 1481 171 1514 q 242 1400 242 1449 z "},"²":{"ha":556,"x_min":53,"x_max":504,"o":"m 93 328 l 93 863 l 93 879 q 86 940 93 917 q 53 979 79 963 l 53 1190 l 504 1190 l 504 979 q 472 940 479 964 q 464 883 464 917 l 464 863 l 464 328 q 469 253 464 276 q 504 211 474 231 l 504 0 l 53 0 l 53 211 q 85 250 78 226 q 93 307 93 274 l 93 328 z "},"³":{"ha":472,"x_min":32,"x_max":442,"o":"m 400 875 l 400 311 q 403 247 400 260 q 442 196 411 214 l 442 0 l 32 0 l 32 196 q 67 237 61 214 q 72 306 72 260 l 72 564 l 72 581 q 65 640 72 618 q 32 679 58 663 l 32 875 l 400 875 m 226 928 q 104 960 153 928 q 46 1068 46 999 q 101 1167 46 1133 q 224 1201 156 1201 q 343 1168 293 1201 q 400 1063 400 1129 q 344 961 400 999 q 226 928 294 928 z "},"´":{"ha":806,"x_min":43,"x_max":794,"o":"m 518 875 l 518 1089 l 794 1089 l 794 450 l 507 450 l 507 578 q 497 647 507 631 q 425 675 482 675 l 411 675 l 411 306 q 416 234 411 256 q 451 196 421 213 l 451 0 l 43 0 l 43 196 q 78 236 72 213 q 83 306 83 260 l 83 569 l 83 586 q 76 643 83 622 q 43 679 69 664 l 43 875 l 518 875 z "},"µ":{"ha":917,"x_min":15,"x_max":871,"o":"m 54 154 l 54 564 l 54 581 q 47 638 54 615 q 15 679 40 660 l 15 875 l 364 875 q 378 795 374 839 q 382 708 382 751 l 382 363 q 388 274 382 294 q 450 224 401 224 q 476 227 465 224 q 503 239 486 231 l 503 564 l 503 581 q 496 640 503 618 q 463 679 489 663 l 463 875 l 831 875 l 831 311 q 835 238 831 260 q 871 196 840 215 l 871 0 l 517 0 l 517 57 q 385 -8 457 11 l 396 -72 q 404 -151 404 -117 q 355 -272 404 -237 q 210 -307 306 -307 q 67 -274 110 -307 q 18 -140 18 -236 q 20 -105 18 -125 q 24 -72 22 -85 l 54 154 z "},"·":{"ha":472,"x_min":76,"x_max":396,"o":"m 236 278 q 123 323 169 278 q 76 438 76 368 q 124 551 76 506 q 236 597 171 597 q 349 552 303 597 q 396 438 396 507 q 350 324 396 369 q 236 278 304 278 z "},"¸":{"ha":861,"x_min":42,"x_max":819,"o":"m 42 557 q 117 814 42 743 q 424 893 200 893 q 742 814 654 893 q 819 574 819 744 l 819 367 l 369 367 l 369 286 q 378 221 369 242 q 431 186 392 186 q 482 217 468 186 q 492 282 492 239 l 492 314 l 819 314 l 819 94 q 669 15 764 47 q 478 -18 575 -18 q 275 -4 361 -18 q 138 49 189 10 q 56 169 76 94 q 42 319 42 221 l 42 557 m 571 964 q 490 999 522 964 q 457 1085 457 1035 q 492 1164 457 1129 q 572 1199 526 1199 q 656 1166 621 1199 q 692 1085 692 1133 q 658 998 692 1032 q 571 964 624 964 m 260 964 q 178 999 211 964 q 146 1085 146 1035 q 181 1164 146 1129 q 261 1199 215 1199 q 345 1166 310 1199 q 381 1085 381 1133 q 347 998 381 1032 q 260 964 313 964 m 497 600 q 488 657 497 636 q 433 689 472 689 q 386 669 403 689 q 369 600 369 650 l 369 567 l 497 567 l 497 600 z "},"¹":{"ha":1667,"x_min":63,"x_max":1617,"o":"m 672 653 l 675 863 l 675 879 q 668 940 675 917 q 635 979 661 963 l 635 1190 l 1015 1190 l 1015 979 q 983 940 990 964 q 975 883 975 917 l 975 863 l 975 0 l 615 0 l 394 535 l 392 328 q 397 253 392 276 q 432 211 401 231 l 432 0 l 63 0 l 63 211 q 95 250 88 226 q 103 307 103 274 l 103 328 l 103 863 l 103 879 q 96 940 103 917 q 63 979 89 963 l 63 1190 l 465 1190 l 672 653 m 1110 600 l 1617 600 l 1617 550 l 1110 550 l 1110 600 m 1617 878 q 1610 789 1617 819 q 1565 713 1599 740 q 1481 676 1531 686 q 1371 667 1431 667 q 1263 674 1311 667 q 1179 702 1214 681 q 1127 759 1144 724 q 1110 878 1110 794 l 1110 1015 q 1119 1109 1110 1072 q 1163 1171 1128 1146 q 1247 1205 1197 1196 q 1350 1214 1296 1214 q 1460 1208 1414 1214 q 1543 1183 1507 1203 q 1606 1110 1589 1157 q 1617 1015 1617 1076 l 1617 878 m 1322 860 q 1325 814 1322 822 q 1363 789 1333 789 q 1400 815 1396 789 q 1404 860 1404 840 l 1404 1014 l 1404 1032 q 1399 1071 1404 1058 q 1364 1092 1389 1092 q 1330 1074 1338 1092 q 1322 1029 1322 1057 l 1322 1014 l 1322 860 z "},"º":{"ha":833,"x_min":39,"x_max":794,"o":"m 794 94 q 620 10 726 38 q 411 -18 514 -18 q 86 103 171 -18 q 39 303 39 171 l 39 594 q 110 814 39 746 q 403 893 193 893 q 617 869 518 893 q 794 785 717 844 l 794 582 l 488 582 l 488 599 q 479 658 488 640 q 428 689 465 689 q 374 651 386 689 q 367 579 367 631 l 367 540 l 582 540 l 582 357 l 367 357 l 367 300 q 374 226 367 247 q 428 186 386 186 q 479 224 467 186 q 488 314 488 250 l 794 314 l 794 94 z "},"»":{"ha":722,"x_min":71,"x_max":663,"o":"m 546 231 l 351 231 l 468 472 l 351 699 l 546 699 l 663 472 l 546 231 m 265 231 l 71 231 l 188 472 l 71 699 l 265 699 l 382 472 l 265 231 z "},"¼":{"ha":472,"x_min":-19,"x_max":411,"o":"m 411 875 l 411 36 l 411 -25 q 406 -133 411 -87 q 383 -214 401 -179 q 308 -296 360 -264 q 146 -337 243 -337 q -19 -312 76 -337 l -19 -117 q 57 -100 39 -117 q 83 8 83 -76 l 83 565 l 83 582 q 76 641 83 618 q 43 681 69 664 l 43 875 l 411 875 m 231 929 q 108 961 157 929 q 50 1069 50 1000 q 105 1169 50 1135 q 228 1203 160 1203 q 347 1169 297 1203 q 404 1064 404 1131 q 349 963 404 1000 q 231 929 299 929 z "},"½":{"ha":1000,"x_min":47,"x_max":953,"o":"m 569 808 l 569 831 q 560 913 569 886 q 496 957 543 957 q 442 935 461 957 q 424 878 424 914 q 427 840 424 854 q 446 811 431 826 q 481 788 456 800 q 550 764 506 776 q 696 722 657 736 q 833 658 781 693 q 890 608 868 635 q 925 546 913 582 q 945 466 938 510 q 953 381 953 422 l 953 375 q 858 90 953 188 q 497 -24 747 -24 q 271 3 372 -24 q 65 101 150 35 l 65 421 l 428 421 q 428 333 428 375 q 439 272 429 290 q 506 233 460 233 q 559 261 540 233 q 578 325 578 289 q 549 420 578 388 q 399 482 521 453 q 139 589 207 529 q 47 849 47 669 l 47 875 q 73 1029 47 972 q 171 1140 99 1086 q 305 1197 225 1181 q 476 1214 385 1214 q 711 1186 607 1214 q 915 1089 815 1158 l 915 808 l 569 808 z "},"¾":{"ha":833,"x_min":31,"x_max":803,"o":"m 354 326 l 354 306 q 360 228 354 246 q 419 186 372 186 q 464 206 446 186 q 482 253 482 225 q 425 329 482 303 q 324 358 403 339 q 82 458 133 403 q 31 614 31 513 q 53 741 31 688 q 132 833 75 794 q 247 879 181 865 q 385 893 313 893 q 599 867 501 893 q 779 779 697 842 l 779 571 l 475 571 l 475 603 q 463 661 475 640 q 410 689 446 689 q 365 672 383 689 q 346 629 346 654 q 393 568 346 589 q 476 546 414 558 q 704 474 647 510 q 803 268 803 411 q 690 40 803 111 q 429 -18 597 -18 q 226 7 321 -18 q 46 100 111 38 l 46 326 l 354 326 z "},"¿":{"ha":472,"x_min":-35,"x_max":511,"o":"m 401 875 l 401 311 q 406 237 401 260 q 442 196 411 214 l 442 0 l 33 0 l 33 196 q 68 237 63 214 q 74 306 74 260 l 74 564 l 74 581 q 67 640 74 618 q 33 679 60 663 l 33 875 l 401 875 m 511 1085 q 477 998 511 1032 q 390 964 443 964 q 309 999 342 964 q 276 1085 276 1035 q 311 1164 276 1129 q 392 1199 346 1199 q 476 1166 440 1199 q 511 1085 511 1133 m 200 1085 q 166 998 200 1032 q 79 964 132 964 q -2 999 31 964 q -35 1085 -35 1035 q 0 1164 -35 1129 q 81 1199 35 1199 q 165 1166 129 1199 q 200 1085 200 1133 z "},"À":{"ha":1000,"x_min":13,"x_max":989,"o":"m 422 0 l 13 0 l 13 211 q 56 289 42 232 q 68 346 61 317 l 225 1190 l 753 1190 l 926 328 q 944 261 935 286 q 989 211 961 219 l 989 0 l 521 0 l 521 211 q 564 276 564 228 q 558 311 564 289 l 379 311 q 374 276 374 289 q 422 211 374 224 l 422 0 m 525 543 l 464 896 l 403 543 l 525 543 z "},"Á":{"ha":1056,"x_min":51,"x_max":1004,"o":"m 943 1190 l 943 788 l 601 788 l 601 824 q 583 911 601 889 q 490 938 561 938 l 469 938 l 469 729 l 600 729 q 893 643 793 729 q 1004 339 1004 547 q 983 192 1004 256 q 903 69 958 114 q 764 10 847 25 q 607 0 710 0 l 51 0 l 51 211 q 89 247 79 224 q 99 306 99 271 l 99 885 q 90 944 99 922 q 51 979 82 967 l 51 1190 l 943 1190 m 469 247 l 501 247 q 597 277 569 247 q 624 378 624 307 q 597 477 624 449 q 501 506 569 506 l 469 506 l 469 247 z "},"Â":{"ha":1056,"x_min":51,"x_max":1004,"o":"m 51 0 l 51 211 q 89 247 79 224 q 99 306 99 271 l 99 885 q 90 944 99 922 q 51 979 82 967 l 51 1190 l 590 1190 q 751 1183 688 1190 q 872 1140 814 1175 q 960 1032 929 1104 q 986 889 986 969 q 942 717 986 783 q 799 622 897 650 q 953 522 901 596 q 1004 339 1004 447 q 983 192 1004 256 q 903 69 958 114 q 764 10 847 25 q 607 0 710 0 l 51 0 m 469 729 l 494 729 q 590 750 561 729 q 618 836 618 771 q 588 921 618 899 q 494 943 558 943 l 469 943 l 469 729 m 469 247 l 501 247 q 597 277 569 247 q 624 378 624 307 q 597 477 624 449 q 501 506 569 506 l 469 506 l 469 247 z "},"Ã":{"ha":917,"x_min":60,"x_max":901,"o":"m 60 1190 l 901 1190 l 901 653 l 586 653 l 586 806 q 565 915 586 893 q 493 938 544 938 l 471 938 l 471 328 q 476 253 471 276 q 511 211 481 231 l 511 0 l 60 0 l 60 211 q 92 250 85 226 q 100 307 100 274 l 100 328 l 100 863 l 100 879 q 93 940 100 917 q 60 979 86 963 l 60 1190 z "},"Ä":{"ha":1028,"x_min":3,"x_max":1008,"o":"m 3 218 q 122 297 93 218 q 139 440 139 342 l 139 863 l 139 879 q 132 940 139 917 q 99 979 125 963 l 99 1190 l 968 1190 l 968 979 q 935 940 943 964 q 928 883 928 917 l 928 863 l 928 328 q 942 253 928 278 q 1008 211 957 229 l 1008 -214 l 732 -214 l 732 -85 q 718 -21 732 -42 q 667 0 704 0 l 344 0 q 293 -20 307 0 q 279 -85 279 -40 l 279 -214 l 3 -214 l 3 218 m 557 232 l 557 958 l 415 958 l 415 435 q 408 324 415 364 q 383 232 401 285 l 557 232 z "},"Å":{"ha":972,"x_min":51,"x_max":943,"o":"m 943 431 l 943 0 l 51 0 l 51 211 q 84 250 76 226 q 92 307 92 274 l 92 328 l 92 863 l 92 879 q 85 940 92 917 q 51 979 78 963 l 51 1190 l 943 1190 l 943 788 l 601 788 l 601 824 q 583 911 601 889 q 490 938 561 938 l 468 938 l 468 725 l 703 725 l 703 493 l 468 493 l 468 253 l 490 253 q 588 285 568 253 q 601 392 601 307 l 601 431 l 943 431 z "},"Æ":{"ha":1528,"x_min":4,"x_max":1525,"o":"m 990 1190 l 990 979 q 958 940 965 964 q 950 883 950 917 l 950 863 l 950 710 l 1038 847 q 1091 943 1082 921 q 1100 1003 1100 965 l 1100 1190 l 1503 1190 l 1503 979 q 1456 951 1471 965 q 1425 908 1442 936 l 1267 653 l 1442 306 q 1471 254 1461 268 q 1525 211 1490 229 l 1525 0 l 1100 0 l 1100 142 q 1082 263 1100 218 q 1046 336 1060 306 l 953 517 l 950 328 q 955 253 950 276 q 990 211 960 231 l 990 0 l 539 0 l 539 211 q 572 250 564 226 q 579 307 579 274 l 579 328 l 579 517 l 483 336 q 449 264 453 274 q 429 142 429 217 l 429 0 l 4 0 l 4 211 q 57 253 38 228 q 88 306 68 267 l 263 653 l 104 908 q 76 947 88 936 q 26 979 58 965 l 26 1190 l 429 1190 l 429 1003 q 438 944 429 967 q 492 847 446 922 l 579 710 l 579 863 l 579 879 q 572 940 579 917 q 539 979 565 963 l 539 1190 l 990 1190 z "},"Ç":{"ha":1000,"x_min":57,"x_max":949,"o":"m 58 794 l 58 1085 q 265 1182 146 1150 q 504 1214 383 1214 q 676 1197 599 1214 q 812 1142 753 1181 q 901 1042 871 1104 q 931 889 931 979 q 886 717 931 785 q 743 622 842 650 q 897 521 846 594 q 949 342 949 447 q 921 181 949 251 q 821 54 889 99 q 661 -7 758 14 q 489 -24 581 -24 q 261 3 361 -24 q 57 104 143 33 l 57 435 l 415 435 l 415 367 l 415 340 q 433 254 415 275 q 489 233 451 233 q 560 275 540 233 q 574 358 574 304 q 538 467 574 438 q 421 497 503 497 l 306 497 l 306 732 l 401 732 q 528 754 496 732 q 560 851 560 776 q 547 922 560 899 q 486 957 529 957 q 425 922 440 957 q 415 847 415 900 l 415 825 l 415 794 l 58 794 z "},"È":{"ha":1111,"x_min":60,"x_max":1051,"o":"m 1051 0 l 600 0 l 600 211 q 633 250 625 226 q 640 307 640 274 l 640 328 l 640 558 l 471 386 l 471 328 q 476 253 471 276 q 511 211 481 231 l 511 0 l 60 0 l 60 211 q 92 250 85 226 q 100 307 100 274 l 100 328 l 100 863 l 100 879 q 93 940 100 917 q 60 979 86 963 l 60 1190 l 511 1190 l 511 979 q 478 940 486 964 q 471 883 471 917 l 471 863 l 471 690 l 640 863 l 640 879 q 633 940 640 917 q 600 979 626 963 l 600 1190 l 1051 1190 l 1051 979 q 1019 940 1026 964 q 1011 883 1011 917 l 1011 863 l 1011 328 q 1016 253 1011 276 q 1051 211 1021 231 l 1051 0 z "},"É":{"ha":1111,"x_min":60,"x_max":1051,"o":"m 1051 0 l 600 0 l 600 211 q 633 250 625 226 q 640 307 640 274 l 640 328 l 640 558 l 471 386 l 471 328 q 476 253 471 276 q 511 211 481 231 l 511 0 l 60 0 l 60 211 q 92 250 85 226 q 100 307 100 274 l 100 328 l 100 863 l 100 879 q 93 940 100 917 q 60 979 86 963 l 60 1190 l 511 1190 l 511 979 q 478 940 486 964 q 471 883 471 917 l 471 863 l 471 690 l 640 863 l 640 879 q 633 940 640 917 q 600 979 626 963 l 600 1190 l 1051 1190 l 1051 979 q 1019 940 1026 964 q 1011 883 1011 917 l 1011 863 l 1011 328 q 1016 253 1011 276 q 1051 211 1021 231 l 1051 0 m 783 1496 q 713 1333 783 1393 q 556 1279 649 1279 q 399 1333 463 1279 q 328 1496 328 1393 l 444 1496 q 479 1418 444 1447 q 556 1393 510 1393 q 634 1419 601 1393 q 667 1496 667 1446 l 783 1496 z "},"Ê":{"ha":1056,"x_min":57,"x_max":1043,"o":"m 785 653 l 960 306 q 989 254 979 268 q 1043 211 1008 229 l 1043 0 l 618 0 l 618 142 q 600 263 618 218 q 564 336 578 306 l 471 517 l 468 328 q 473 253 468 276 q 508 211 478 231 l 508 0 l 57 0 l 57 211 q 90 250 82 226 q 97 307 97 274 l 97 328 l 97 863 l 97 879 q 90 940 97 917 q 57 979 83 963 l 57 1190 l 508 1190 l 508 979 q 476 940 483 964 q 468 883 468 917 l 468 863 l 468 710 l 556 847 q 609 943 600 921 q 618 1003 618 965 l 618 1190 l 1021 1190 l 1021 979 q 974 951 989 965 q 943 908 960 936 l 785 653 z "},"Ë":{"ha":1028,"x_min":3,"x_max":968,"o":"m 415 958 l 415 365 l 415 328 q 408 196 415 239 q 361 76 397 126 q 254 -4 319 19 q 128 -24 201 -24 q 88 -22 103 -24 q 3 -6 74 -19 l 3 218 q 122 263 96 218 q 139 371 139 290 l 139 863 l 139 879 q 132 940 139 917 q 99 979 125 963 l 99 1190 l 968 1190 l 968 979 q 935 940 943 964 q 928 883 928 917 l 928 863 l 928 328 q 933 253 928 276 q 968 211 938 231 l 968 0 l 517 0 l 517 211 q 549 250 542 226 q 557 307 557 274 l 557 328 l 557 958 l 415 958 z "},"Ì":{"ha":1306,"x_min":65,"x_max":1240,"o":"m 656 703 l 785 1190 l 1240 1190 l 1240 979 q 1208 940 1215 964 q 1200 883 1200 917 l 1200 863 l 1200 328 q 1205 253 1200 276 q 1240 211 1210 231 l 1240 0 l 806 0 l 806 211 q 838 250 831 226 q 846 307 846 274 l 846 328 l 846 647 l 682 0 l 564 0 l 394 647 l 392 328 q 397 253 392 276 q 432 211 401 231 l 432 0 l 65 0 l 65 211 q 98 250 90 226 q 106 307 106 274 l 106 328 l 106 863 l 106 879 q 99 940 106 917 q 65 979 92 963 l 65 1190 l 533 1190 l 656 703 z "},"Í":{"ha":1083,"x_min":60,"x_max":1024,"o":"m 1024 0 l 572 0 l 572 211 q 605 250 597 226 q 613 307 613 274 l 613 328 l 613 503 l 471 503 l 471 328 q 476 253 471 276 q 511 211 481 231 l 511 0 l 60 0 l 60 211 q 92 250 85 226 q 100 307 100 274 l 100 328 l 100 863 l 100 879 q 93 940 100 917 q 60 979 86 963 l 60 1190 l 511 1190 l 511 979 q 478 940 486 964 q 471 883 471 917 l 471 863 l 471 735 l 613 735 l 613 863 l 613 879 q 606 940 613 917 q 572 979 599 963 l 572 1190 l 1024 1190 l 1024 979 q 991 940 999 964 q 983 883 983 917 l 983 863 l 983 328 q 988 253 983 276 q 1024 211 993 231 l 1024 0 z "},"Î":{"ha":1000,"x_min":57,"x_max":943,"o":"m 943 344 q 821 50 943 136 q 500 -24 717 -24 q 181 50 285 -24 q 57 344 57 138 l 57 846 q 179 1140 57 1054 q 500 1214 283 1214 q 819 1140 715 1214 q 943 846 943 1053 l 943 344 m 428 326 q 435 278 428 296 q 500 233 451 233 q 555 259 538 233 q 572 326 572 285 l 572 865 q 565 914 572 896 q 500 957 549 957 q 445 932 463 957 q 428 865 428 907 l 428 326 z "},"Ï":{"ha":1083,"x_min":60,"x_max":1024,"o":"m 1024 0 l 572 0 l 572 211 q 605 250 597 226 q 613 307 613 274 l 613 328 l 613 958 l 471 958 l 471 328 q 476 253 471 276 q 511 211 481 231 l 511 0 l 60 0 l 60 211 q 92 250 85 226 q 100 307 100 274 l 100 328 l 100 863 l 100 879 q 93 940 100 917 q 60 979 86 963 l 60 1190 l 1024 1190 l 1024 979 q 991 940 999 964 q 983 883 983 917 l 983 863 l 983 328 q 988 253 983 276 q 1024 211 993 231 l 1024 0 z "},"Ð":{"ha":1000,"x_min":60,"x_max":983,"o":"m 100 863 l 100 879 q 93 940 100 917 q 60 979 86 963 l 60 1190 l 544 1190 q 711 1183 660 1190 q 865 1128 810 1169 q 965 978 936 1072 q 983 839 983 918 q 982 803 982 808 l 982 708 q 907 440 982 524 q 603 342 819 342 l 471 342 q 471 282 471 311 q 511 211 475 233 l 511 0 l 60 0 l 60 211 q 92 250 85 226 q 100 307 100 274 l 100 328 l 100 863 m 471 593 l 506 593 q 599 638 579 593 q 611 767 611 667 q 607 871 611 847 q 506 942 594 942 l 471 942 l 471 593 z "},"Ñ":{"ha":972,"x_min":50,"x_max":915,"o":"m 557 825 l 557 856 q 540 935 557 914 q 489 957 522 957 q 431 924 446 957 q 421 853 421 901 l 421 825 l 421 365 l 421 335 q 438 255 421 276 q 489 233 456 233 q 547 267 532 233 q 557 338 557 289 l 557 365 l 557 500 l 915 500 l 915 103 q 737 10 843 43 q 515 -24 631 -24 q 298 0 393 -24 q 149 75 203 24 q 61 238 81 139 q 50 426 50 293 l 50 840 q 67 994 50 938 q 151 1124 90 1072 q 300 1192 207 1169 q 504 1214 393 1214 q 717 1180 610 1214 q 915 1085 824 1146 l 915 754 l 557 754 l 557 825 z "},"Ò":{"ha":1056,"x_min":15,"x_max":1042,"o":"m 15 1190 l 1042 1190 l 1042 653 l 779 653 l 779 853 q 765 917 779 896 q 714 938 751 938 l 714 328 q 719 253 714 276 q 754 211 724 231 l 754 0 l 303 0 l 303 211 q 335 250 328 226 q 343 307 343 274 l 343 328 l 343 938 q 292 917 306 938 q 278 853 278 897 l 278 653 l 15 653 l 15 1190 z "},"Ó":{"ha":972,"x_min":13,"x_max":958,"o":"m 69 900 q 44 943 57 921 q 13 979 29 965 l 13 1190 l 467 1190 l 467 1058 q 467 988 467 1022 q 490 889 469 946 l 531 779 l 569 889 q 590 963 586 936 q 593 1058 593 990 l 593 1190 l 958 1190 l 958 979 q 918 933 938 960 q 892 885 899 907 l 711 371 q 629 164 660 222 q 518 26 581 69 q 335 -24 446 -24 q 208 -6 269 -24 l 208 218 q 304 237 272 218 q 357 313 336 256 l 69 900 z "},"Ô":{"ha":1417,"x_min":19,"x_max":1397,"o":"m 935 211 l 935 0 l 483 0 l 483 211 l 400 211 q 97 310 185 211 q 21 578 21 396 l 21 592 q 19 629 19 611 q 38 767 19 707 q 138 917 67 863 q 290 972 193 960 q 458 979 342 979 l 483 979 l 483 1190 l 935 1190 l 935 979 l 958 979 q 1125 972 1074 979 q 1279 917 1224 958 q 1379 767 1350 861 q 1397 628 1397 707 q 1396 592 1396 597 l 1396 578 q 1321 310 1396 393 q 1017 211 1233 211 l 935 211 m 524 463 l 524 731 l 497 731 q 404 690 425 731 q 392 596 392 665 q 403 503 392 525 q 497 463 424 463 l 524 463 m 893 463 l 919 463 q 1013 503 992 463 q 1025 596 1025 526 q 1014 690 1025 668 q 919 731 993 731 l 893 731 l 893 463 z "},"Õ":{"ha":972,"x_min":14,"x_max":960,"o":"m 264 624 l 111 875 q 65 950 67 949 q 28 979 49 971 l 28 1190 l 451 1190 l 451 1092 q 454 1028 451 1043 q 478 971 457 1014 l 514 896 l 550 971 q 572 1030 568 1011 q 576 1092 576 1049 l 576 1190 l 949 1190 l 949 979 q 914 951 931 972 q 865 875 906 942 l 715 624 l 903 290 q 929 247 915 268 q 960 211 943 225 l 960 0 l 506 0 l 506 132 q 479 264 506 201 q 442 342 456 313 q 403 264 415 293 q 379 132 379 210 l 379 0 l 14 0 l 14 211 q 50 256 35 233 q 81 306 60 269 l 264 624 z "},"Ö":{"ha":1083,"x_min":60,"x_max":1064,"o":"m 60 0 l 60 211 q 92 250 85 226 q 100 307 100 274 l 100 328 l 100 863 l 100 879 q 93 940 100 917 q 60 979 86 963 l 60 1190 l 511 1190 l 511 979 q 478 940 486 964 q 471 883 471 917 l 471 863 l 471 232 l 613 232 l 613 863 l 613 879 q 606 940 613 917 q 572 979 599 963 l 572 1190 l 1024 1190 l 1024 979 q 991 940 999 964 q 983 883 983 917 l 983 863 l 983 328 q 998 253 983 278 q 1064 211 1013 229 l 1064 -214 l 788 -214 l 788 -85 q 774 -21 788 -42 q 722 0 760 0 l 60 0 z "},"×":{"ha":1056,"x_min":36,"x_max":996,"o":"m 996 0 l 544 0 l 544 211 q 577 250 569 226 q 585 307 585 274 l 585 328 l 585 503 q 476 453 522 468 q 335 432 413 432 q 150 510 224 432 q 76 711 76 588 l 76 863 l 76 879 q 69 940 76 917 q 36 979 63 963 l 36 1190 l 488 1190 l 488 979 q 455 940 463 964 q 447 883 447 917 l 447 863 l 447 749 q 464 710 447 724 q 503 696 481 696 q 551 707 532 696 q 585 735 561 713 l 585 863 l 585 879 q 578 940 585 917 q 544 979 571 963 l 544 1190 l 996 1190 l 996 979 q 963 940 971 964 q 956 883 956 917 l 956 863 l 956 328 q 960 253 956 276 q 996 211 965 231 l 996 0 z "},"Ø":{"ha":1583,"x_min":60,"x_max":1522,"o":"m 60 0 l 60 211 q 92 250 85 226 q 100 307 100 274 l 100 328 l 100 863 l 100 879 q 93 940 100 917 q 60 979 86 963 l 60 1190 l 511 1190 l 511 979 q 478 940 486 964 q 471 883 471 917 l 471 863 l 471 232 l 606 232 l 606 863 l 606 879 q 599 940 606 917 q 565 979 592 963 l 565 1190 l 1017 1190 l 1017 979 q 984 940 992 964 q 976 883 976 917 l 976 863 l 976 232 l 1111 232 l 1111 863 l 1111 879 q 1104 940 1111 917 q 1071 979 1097 963 l 1071 1190 l 1522 1190 l 1522 979 q 1490 940 1497 964 q 1482 883 1482 917 l 1482 863 l 1482 328 q 1487 253 1482 276 q 1522 211 1492 231 l 1522 0 l 60 0 z "},"Ù":{"ha":1583,"x_min":60,"x_max":1563,"o":"m 60 0 l 60 211 q 92 250 85 226 q 100 307 100 274 l 100 328 l 100 863 l 100 879 q 93 940 100 917 q 60 979 86 963 l 60 1190 l 511 1190 l 511 979 q 478 940 486 964 q 471 883 471 917 l 471 863 l 471 232 l 606 232 l 606 863 l 606 879 q 599 940 606 917 q 565 979 592 963 l 565 1190 l 1017 1190 l 1017 979 q 984 940 992 964 q 976 883 976 917 l 976 863 l 976 232 l 1111 232 l 1111 863 l 1111 879 q 1104 940 1111 917 q 1071 979 1097 963 l 1071 1190 l 1522 1190 l 1522 979 q 1490 940 1497 964 q 1482 883 1482 917 l 1482 863 l 1482 328 q 1497 253 1482 278 q 1563 211 1511 229 l 1563 -214 l 1286 -214 l 1286 -85 q 1272 -21 1286 -42 q 1221 0 1258 0 l 60 0 z "},"Ú":{"ha":1250,"x_min":15,"x_max":1226,"o":"m 754 1190 l 754 979 q 722 939 729 964 q 714 875 714 914 l 714 849 l 846 849 q 1149 750 1061 849 q 1225 482 1225 664 l 1225 388 q 1226 350 1226 368 q 1208 213 1226 272 q 1108 63 1179 117 q 956 7 1053 19 q 788 0 904 0 l 303 0 l 303 211 q 335 250 328 226 q 343 307 343 274 l 343 328 l 343 938 q 292 917 306 938 q 278 853 278 897 l 278 653 l 15 653 l 15 1190 l 754 1190 m 714 597 l 714 249 l 749 249 q 842 293 822 249 q 854 424 854 322 q 843 551 854 525 q 749 597 824 597 l 714 597 z "},"Û":{"ha":1583,"x_min":60,"x_max":1524,"o":"m 100 328 l 100 863 l 100 879 q 93 940 100 917 q 60 979 86 963 l 60 1190 l 511 1190 l 511 979 q 478 939 486 964 q 471 875 471 914 l 471 849 l 603 849 q 906 750 818 849 q 982 482 982 664 l 982 388 q 983 350 983 368 q 965 213 983 272 q 865 63 936 117 q 713 7 810 19 q 544 0 661 0 l 60 0 l 60 211 q 92 250 85 226 q 100 307 100 274 l 100 328 m 1524 0 l 1072 0 l 1072 211 q 1105 250 1097 226 q 1113 307 1113 274 l 1113 328 l 1113 863 l 1113 879 q 1106 940 1113 917 q 1072 979 1099 963 l 1072 1190 l 1524 1190 l 1524 979 q 1491 940 1499 964 q 1483 883 1483 917 l 1483 863 l 1483 328 q 1488 253 1483 276 q 1524 211 1493 231 l 1524 0 m 471 597 l 471 249 l 506 249 q 599 293 579 249 q 611 424 611 322 q 600 551 611 525 q 506 597 581 597 l 471 597 z "},"Ü":{"ha":1000,"x_min":60,"x_max":983,"o":"m 100 328 l 100 863 l 100 879 q 93 940 100 917 q 60 979 86 963 l 60 1190 l 511 1190 l 511 979 q 478 939 486 964 q 471 875 471 914 l 471 849 l 603 849 q 906 750 818 849 q 982 482 982 664 l 982 388 q 983 350 983 368 q 965 213 983 272 q 865 63 936 117 q 713 7 810 19 q 544 0 661 0 l 60 0 l 60 211 q 92 250 85 226 q 100 307 100 274 l 100 328 m 471 597 l 471 249 l 506 249 q 599 293 579 249 q 611 424 611 322 q 600 551 611 525 q 506 597 581 597 l 471 597 z "},"Ý":{"ha":972,"x_min":57,"x_max":922,"o":"m 551 732 l 551 825 l 551 856 q 534 935 551 914 q 483 957 517 957 q 425 924 440 957 q 415 853 415 901 l 415 825 l 415 794 l 57 794 l 57 1085 q 256 1180 149 1146 q 468 1214 363 1214 q 673 1193 583 1214 q 822 1123 763 1172 q 904 996 881 1074 q 922 840 922 935 l 922 426 q 913 238 922 286 q 824 75 893 140 q 673 1 771 25 q 457 -24 575 -24 q 236 10 343 -24 q 57 103 129 43 l 57 435 l 415 435 l 415 365 l 415 335 q 433 255 415 276 q 483 233 450 233 q 542 267 526 233 q 551 338 551 289 l 551 365 l 551 497 l 313 497 l 313 732 l 551 732 z "},"Þ":{"ha":1528,"x_min":60,"x_max":1471,"o":"m 585 503 l 471 503 l 471 328 q 476 253 471 276 q 511 211 481 231 l 511 0 l 60 0 l 60 211 q 92 250 85 226 q 100 307 100 274 l 100 328 l 100 863 l 100 879 q 93 940 100 917 q 60 979 86 963 l 60 1190 l 511 1190 l 511 979 q 478 940 486 964 q 471 883 471 917 l 471 863 l 471 735 l 585 735 l 585 846 q 707 1140 585 1054 q 1028 1214 811 1214 q 1347 1140 1243 1214 q 1471 846 1471 1053 l 1471 344 q 1349 50 1471 136 q 1028 -24 1244 -24 q 708 50 813 -24 q 585 344 585 138 l 585 503 m 956 326 q 963 278 956 296 q 1028 233 979 233 q 1083 259 1065 233 q 1100 326 1100 285 l 1100 865 q 1093 914 1100 896 q 1028 957 1076 957 q 973 932 990 957 q 956 865 956 907 l 956 326 z "},"ß":{"ha":1056,"x_min":49,"x_max":1006,"o":"m 594 328 l 594 464 l 579 464 q 488 431 508 464 q 468 319 468 399 q 464 113 468 171 q 447 0 460 56 l 49 0 l 49 211 q 89 261 79 224 q 94 328 94 282 l 94 396 q 128 530 94 486 q 250 594 163 574 q 110 700 153 621 q 72 876 72 768 q 102 1034 72 967 q 203 1143 132 1101 q 323 1183 256 1175 q 490 1190 390 1190 l 1006 1190 l 1006 979 q 973 940 981 964 q 965 883 965 917 l 965 863 l 965 328 q 970 253 965 276 q 1006 211 975 231 l 1006 0 l 554 0 l 554 211 q 587 250 579 226 q 594 307 594 274 l 594 328 m 594 701 l 594 944 l 557 944 q 475 916 499 944 q 451 826 451 888 q 475 732 451 763 q 557 701 499 701 l 594 701 z "},"à":{"ha":889,"x_min":29,"x_max":861,"o":"m 506 67 q 399 3 454 24 q 278 -18 344 -18 q 96 49 163 -18 q 29 232 29 115 q 100 417 29 351 q 282 507 151 464 l 493 575 l 493 606 q 481 667 493 643 q 436 692 468 692 q 386 668 400 692 q 372 606 372 644 l 372 569 l 65 569 l 65 785 q 244 867 146 842 q 456 893 343 893 q 606 877 533 893 q 729 824 679 861 q 810 703 792 775 q 821 558 821 660 l 821 314 q 826 240 821 263 q 861 196 831 218 l 861 0 l 506 0 l 506 67 m 493 372 q 404 338 449 354 q 357 274 357 313 q 370 233 357 251 q 404 219 383 215 q 493 251 449 219 l 493 372 z "},"á":{"ha":860,"x_min":43,"x_max":822,"o":"m 353 819 q 459 876 403 858 q 578 893 515 893 q 698 873 646 893 q 783 803 750 853 q 817 712 811 761 q 822 561 822 663 l 822 333 q 811 185 822 236 q 740 58 793 104 q 600 -6 686 13 q 444 -18 539 -18 q 293 -8 357 -18 q 150 40 201 6 q 57 169 79 88 q 43 333 43 221 l 43 561 l 43 819 q 76 1026 43 940 q 178 1161 108 1113 q 353 1236 204 1179 q 461 1319 461 1278 l 789 1319 l 789 1117 q 699 1049 764 1076 q 556 1003 654 1031 q 413 942 457 976 q 353 819 353 896 m 371 306 q 376 229 371 249 q 432 186 389 186 q 488 228 475 186 q 494 306 494 250 l 494 517 q 478 622 494 597 q 428 647 461 647 q 379 638 401 647 q 371 632 376 636 l 371 306 z "},"â":{"ha":889,"x_min":43,"x_max":864,"o":"m 43 0 l 43 196 q 78 236 72 213 q 83 306 83 260 l 83 569 l 83 586 q 76 643 83 622 q 43 679 69 664 l 43 875 l 522 875 q 754 831 679 875 q 846 647 846 776 q 807 525 846 574 q 685 457 768 476 q 821 384 778 438 q 864 244 864 331 q 765 54 864 117 q 528 0 681 0 l 43 0 m 438 679 l 411 679 l 411 540 l 438 540 q 499 556 479 540 q 519 611 519 572 q 499 665 519 650 q 438 679 479 679 m 411 357 l 411 196 l 438 196 q 506 215 483 196 q 528 278 528 235 q 507 340 528 322 q 438 357 486 357 l 411 357 z "},"ã":{"ha":806,"x_min":43,"x_max":794,"o":"m 794 875 l 794 450 l 507 450 l 507 578 q 497 647 507 631 q 425 675 482 675 l 411 675 l 411 306 q 416 234 411 256 q 451 196 421 213 l 451 0 l 43 0 l 43 196 q 78 236 72 213 q 83 306 83 260 l 83 569 l 83 586 q 76 643 83 622 q 43 679 69 664 l 43 875 l 794 875 z "},"ä":{"ha":889,"x_min":3,"x_max":878,"o":"m 3 196 q 94 256 72 219 q 111 336 111 282 l 111 569 l 111 586 q 104 643 111 622 q 71 679 97 664 l 71 875 l 846 875 l 846 679 q 813 641 821 664 q 806 586 806 618 l 806 569 l 806 303 q 813 242 806 257 q 878 196 826 211 l 878 -214 l 601 -214 l 601 -85 q 536 0 601 0 l 344 0 q 279 -85 279 0 l 279 -214 l 3 -214 l 3 196 m 340 207 l 478 207 l 478 672 l 356 672 l 356 294 q 340 207 356 256 z "},"å":{"ha":861,"x_min":42,"x_max":819,"o":"m 42 557 q 117 814 42 743 q 424 893 200 893 q 742 814 654 893 q 819 574 819 744 l 819 367 l 369 367 l 369 286 q 378 221 369 242 q 431 186 392 186 q 482 217 468 186 q 492 282 492 239 l 492 314 l 819 314 l 819 94 q 669 15 764 47 q 478 -18 575 -18 q 275 -4 361 -18 q 138 49 189 10 q 56 169 76 94 q 42 319 42 221 l 42 557 m 497 600 q 488 657 497 636 q 433 689 472 689 q 386 669 403 689 q 369 600 369 650 l 369 567 l 497 567 l 497 600 z "},"æ":{"ha":1333,"x_min":10,"x_max":1324,"o":"m 503 381 l 314 0 l 10 0 l 10 196 q 65 243 43 213 q 110 315 68 246 l 215 490 l 100 632 q 35 679 68 672 l 35 875 l 401 875 l 401 838 q 407 737 401 767 q 444 661 413 707 l 503 578 l 503 875 l 831 875 l 831 578 l 889 661 q 926 735 921 707 q 932 838 932 764 l 932 875 l 1299 875 l 1299 679 q 1233 632 1265 672 l 1118 490 l 1224 315 q 1267 244 1244 279 q 1324 196 1290 214 l 1324 0 l 1019 0 l 833 381 l 831 306 q 835 238 831 257 q 871 196 840 218 l 871 0 l 463 0 l 463 196 q 497 239 492 218 q 503 306 503 260 l 503 381 z "},"ç":{"ha":833,"x_min":39,"x_max":808,"o":"m 251 540 l 372 540 q 442 559 421 540 q 464 622 464 578 q 449 669 464 650 q 406 689 433 689 q 358 667 369 689 q 346 603 346 644 l 346 582 l 39 582 l 39 785 q 228 871 117 843 q 436 893 319 893 q 689 838 599 893 q 790 647 790 775 q 751 526 790 575 q 629 457 713 476 q 808 244 808 421 q 692 43 808 113 q 422 -18 589 -18 q 222 7 318 -18 q 39 94 110 36 l 39 314 l 346 314 l 346 306 q 353 224 346 244 q 408 186 365 186 q 474 258 474 186 q 451 335 474 313 q 372 357 429 357 l 251 357 l 251 540 z "},"è":{"ha":972,"x_min":43,"x_max":929,"o":"m 889 306 q 894 234 889 254 q 929 196 899 214 l 929 0 l 521 0 l 521 196 q 553 232 546 208 q 561 286 561 256 l 561 306 l 561 411 l 411 283 q 417 227 411 243 q 451 196 422 211 l 451 0 l 43 0 l 43 196 q 78 236 72 213 q 83 306 83 260 l 83 569 l 83 586 q 76 643 83 622 q 43 679 69 664 l 43 875 l 451 875 l 451 679 q 419 643 426 667 q 411 589 411 619 l 411 569 l 411 507 l 561 635 q 550 660 561 649 q 521 679 539 671 l 521 875 l 929 875 l 929 679 q 897 641 904 664 q 889 586 889 618 l 889 569 l 889 306 z "},"é":{"ha":972,"x_min":43,"x_max":929,"o":"m 714 1192 q 643 1029 714 1089 q 486 975 579 975 q 329 1029 393 975 q 258 1192 258 1089 l 375 1192 q 410 1114 375 1143 q 486 1089 440 1089 q 565 1115 532 1089 q 597 1192 597 1142 l 714 1192 m 889 306 q 894 234 889 254 q 929 196 899 214 l 929 0 l 521 0 l 521 196 q 553 232 546 208 q 561 286 561 256 l 561 306 l 561 411 l 411 283 q 417 227 411 243 q 451 196 422 211 l 451 0 l 43 0 l 43 196 q 78 236 72 213 q 83 306 83 260 l 83 569 l 83 586 q 76 643 83 622 q 43 679 69 664 l 43 875 l 451 875 l 451 679 q 419 643 426 667 q 411 589 411 619 l 411 569 l 411 507 l 561 635 q 550 660 561 649 q 521 679 539 671 l 521 875 l 929 875 l 929 679 q 897 641 904 664 q 889 586 889 618 l 889 569 l 889 306 z "},"ê":{"ha":917,"x_min":43,"x_max":907,"o":"m 411 578 l 469 661 q 508 738 501 707 q 515 838 515 768 l 515 875 l 882 875 l 882 679 q 817 632 849 672 l 701 490 l 807 315 q 850 244 828 279 q 907 196 874 214 l 907 0 l 603 0 l 414 381 l 411 311 q 416 240 411 261 q 451 196 421 218 l 451 0 l 43 0 l 43 196 q 78 239 72 218 q 83 306 83 260 l 83 564 l 83 581 q 76 638 83 615 q 43 679 69 660 l 43 875 l 411 875 l 411 578 z "},"ë":{"ha":889,"x_min":3,"x_max":846,"o":"m 806 306 q 810 234 806 254 q 846 196 815 214 l 846 0 l 438 0 l 438 196 q 470 231 463 208 q 478 285 478 253 l 478 306 l 478 672 l 356 672 l 356 288 l 356 253 q 347 135 356 179 q 305 52 339 92 q 218 -3 271 13 q 101 -18 165 -18 q 63 -15 83 -18 q 3 -6 43 -12 l 3 203 q 96 239 74 203 q 111 336 111 264 l 111 569 l 111 586 q 104 643 111 622 q 71 679 97 664 l 71 875 l 846 875 l 846 679 q 813 641 821 664 q 806 586 806 618 l 806 569 l 806 306 z "},"ì":{"ha":1139,"x_min":43,"x_max":1096,"o":"m 460 875 l 567 517 l 681 875 l 1096 875 l 1096 679 q 1063 641 1071 664 q 1056 586 1056 618 l 1056 569 l 1056 306 q 1060 234 1056 254 q 1096 196 1065 214 l 1096 0 l 703 0 l 703 196 q 735 231 728 208 q 743 285 743 253 l 743 306 l 743 476 l 597 0 l 486 0 l 338 476 l 335 306 q 340 234 335 256 q 375 196 344 213 l 375 0 l 43 0 l 43 196 q 78 236 72 213 q 83 306 83 260 l 83 569 l 83 586 q 76 643 83 622 q 43 679 69 664 l 43 875 l 460 875 z "},"í":{"ha":944,"x_min":43,"x_max":901,"o":"m 861 306 q 866 234 861 254 q 901 196 871 214 l 901 0 l 501 0 l 501 196 q 527 225 521 206 q 533 272 533 244 l 533 306 l 533 347 l 411 347 l 411 306 l 411 272 q 417 225 411 244 q 443 196 424 206 l 443 0 l 43 0 l 43 196 q 78 236 72 213 q 83 306 83 260 l 83 569 l 83 586 q 76 643 83 622 q 43 679 69 664 l 43 875 l 443 875 l 443 679 q 417 650 424 669 q 411 603 411 631 l 411 569 l 411 550 l 533 550 l 533 569 l 533 603 q 528 651 533 633 q 501 679 522 668 l 501 875 l 901 875 l 901 679 q 869 641 876 664 q 861 586 861 618 l 861 569 l 861 306 z "},"î":{"ha":861,"x_min":40,"x_max":821,"o":"m 821 333 q 811 185 821 231 q 740 59 793 104 q 593 -4 686 14 q 429 -18 524 -18 q 283 -8 343 -18 q 147 40 199 6 q 54 169 76 88 q 40 333 40 221 l 40 561 q 51 703 40 656 q 124 822 69 779 q 258 878 178 864 q 431 893 339 893 q 633 872 557 893 q 737 822 696 856 q 799 734 778 789 q 821 561 821 679 l 821 333 m 368 306 q 374 229 368 249 q 429 186 386 186 q 486 228 472 186 q 493 306 493 250 l 493 558 l 493 585 q 485 654 493 633 q 431 689 471 689 q 380 659 392 689 q 368 583 368 629 l 368 558 l 368 306 z "},"ï":{"ha":944,"x_min":43,"x_max":901,"o":"m 861 306 q 866 234 861 254 q 901 196 871 214 l 901 0 l 501 0 l 501 196 q 527 224 521 206 q 533 272 533 243 l 533 306 l 533 672 l 411 672 l 411 306 l 411 272 q 417 225 411 244 q 443 196 424 206 l 443 0 l 43 0 l 43 196 q 78 236 72 213 q 83 306 83 260 l 83 569 l 83 586 q 76 643 83 622 q 43 679 69 664 l 43 875 l 901 875 l 901 679 q 869 641 876 664 q 861 586 861 618 l 861 569 l 861 306 z "},"ð":{"ha":917,"x_min":49,"x_max":869,"o":"m 408 825 q 510 876 453 858 q 625 893 567 893 q 745 873 693 893 q 831 803 797 853 q 864 711 854 774 q 869 607 869 674 l 869 564 l 869 285 q 863 188 869 232 q 822 72 850 110 q 734 3 788 25 q 617 -18 681 -18 q 510 -2 563 -18 q 417 46 458 14 l 417 0 q 422 -74 417 -51 q 457 -115 426 -96 l 457 -314 l 49 -314 l 49 -115 q 81 -76 74 -99 q 89 -21 89 -53 l 89 0 l 89 561 l 89 578 q 82 637 89 614 q 49 676 75 660 l 49 875 l 408 875 l 408 825 m 417 240 q 476 222 444 222 q 533 257 519 222 q 542 331 542 278 l 542 524 q 533 603 542 578 q 475 647 518 647 q 417 632 443 647 l 417 240 z "},"ñ":{"ha":833,"x_min":39,"x_max":794,"o":"m 488 574 l 488 590 q 479 654 488 633 q 428 689 465 689 q 374 651 386 689 q 367 579 367 631 l 367 300 q 374 226 367 247 q 428 186 386 186 q 479 224 465 186 q 488 297 488 247 l 488 326 l 488 372 l 794 372 l 794 101 q 615 7 731 38 q 411 -18 522 -18 q 86 103 171 -18 q 39 303 39 171 l 39 594 q 110 814 39 746 q 403 893 193 893 q 617 869 518 893 q 794 785 717 844 l 794 546 l 488 546 l 488 574 z "},"ò":{"ha":917,"x_min":11,"x_max":906,"o":"m 294 675 q 252 660 263 675 q 242 613 242 646 l 242 450 l 11 450 l 11 875 l 906 875 l 906 450 l 675 450 l 675 613 q 665 660 675 646 q 622 675 656 675 l 622 306 q 627 234 622 256 q 663 196 632 213 l 663 0 l 254 0 l 254 196 q 289 236 283 213 q 294 306 294 260 l 294 675 z "},"ó":{"ha":861,"x_min":11,"x_max":851,"o":"m 494 875 l 851 875 l 851 679 q 806 608 822 660 q 790 556 794 571 l 635 29 q 499 -253 569 -193 q 307 -314 428 -314 q 231 -310 265 -314 q 156 -294 196 -306 l 156 -104 q 236 -85 204 -104 q 285 -22 268 -67 l 72 581 q 51 638 54 633 q 11 679 39 664 l 11 875 l 429 875 l 429 679 q 399 660 406 668 q 393 638 393 651 q 397 611 393 628 q 404 581 400 594 l 468 374 l 519 581 q 526 614 522 594 q 531 638 531 633 q 525 660 531 651 q 494 679 519 668 l 494 875 z "},"ô":{"ha":1306,"x_min":40,"x_max":1265,"o":"m 817 829 q 913 877 865 861 q 1017 893 961 893 q 1128 875 1081 893 q 1210 813 1175 857 q 1251 732 1236 779 q 1265 592 1265 685 l 1265 282 q 1260 172 1265 204 q 1217 72 1250 113 q 1131 5 1183 28 q 1018 -18 1078 -18 q 916 -3 963 -18 q 817 42 869 11 l 817 -3 l 817 -28 q 824 -86 817 -71 q 854 -118 832 -101 l 854 -314 l 447 -314 l 447 -118 q 482 -75 475 -101 q 489 -3 489 -49 l 489 42 q 392 -3 438 11 q 288 -18 346 -18 q 176 5 231 -18 q 89 72 122 28 q 49 161 57 111 q 40 282 40 211 l 40 592 q 49 717 40 669 q 94 810 58 765 q 179 874 129 856 q 289 893 229 893 q 489 829 394 893 l 489 879 l 489 896 q 482 956 489 933 q 447 994 475 979 l 447 1190 l 817 1190 l 817 829 m 368 522 l 368 365 q 367 340 368 353 q 367 314 367 328 q 383 237 367 257 q 431 217 400 217 q 489 232 463 217 l 489 625 q 463 638 479 633 q 433 642 447 642 q 385 623 401 642 q 368 547 368 604 l 368 522 m 938 522 l 938 543 q 929 610 938 590 q 872 642 915 642 q 817 625 838 642 l 817 232 q 875 217 843 217 q 926 244 914 217 q 939 315 939 271 q 938 344 939 332 q 938 365 938 357 l 938 522 z "},"õ":{"ha":833,"x_min":11,"x_max":824,"o":"m 219 450 l 110 594 q 71 643 81 633 q 17 676 49 664 l 17 875 l 385 875 l 385 842 l 385 803 q 392 736 385 756 q 439 669 400 717 l 444 678 q 484 747 479 731 q 489 832 489 764 l 489 875 l 806 875 l 806 676 q 774 652 789 667 q 726 594 760 638 l 618 450 l 735 282 q 772 233 758 249 q 824 196 799 204 l 824 0 l 439 0 l 439 33 l 439 67 q 431 158 439 126 q 385 238 422 189 q 331 153 339 183 q 322 42 322 122 l 322 0 l 11 0 l 11 196 q 38 208 28 200 q 74 251 47 217 l 219 450 z "},"ö":{"ha":944,"x_min":43,"x_max":933,"o":"m 43 0 l 43 196 q 78 236 72 213 q 83 306 83 260 l 83 569 l 83 586 q 76 643 83 622 q 43 679 69 664 l 43 875 l 443 875 l 443 679 q 417 649 424 669 q 411 597 411 628 l 411 564 l 411 207 l 533 207 l 533 564 l 533 597 q 528 649 533 629 q 501 679 522 668 l 501 875 l 901 875 l 901 679 q 869 641 876 664 q 861 586 861 618 l 861 569 l 861 306 q 868 242 861 257 q 933 196 882 210 l 933 -214 l 657 -214 l 657 -85 q 592 0 657 0 l 43 0 z "},"÷":{"ha":917,"x_min":18,"x_max":874,"o":"m 833 306 q 838 234 833 254 q 874 196 843 214 l 874 0 l 465 0 l 465 196 q 498 231 490 208 q 506 285 506 253 l 506 306 l 506 347 q 403 318 451 329 q 297 307 356 307 q 125 372 192 307 q 58 549 58 438 l 58 569 l 58 586 q 49 649 58 632 q 18 679 40 667 l 18 875 l 418 875 l 418 679 q 392 650 399 669 q 386 603 386 631 l 386 569 q 401 534 386 546 q 433 522 415 522 q 506 550 471 522 l 506 569 l 506 603 q 498 655 506 640 q 474 679 490 669 l 474 875 l 874 875 l 874 679 q 841 641 849 664 q 833 586 833 618 l 833 569 l 833 306 z "},"ø":{"ha":1389,"x_min":43,"x_max":1346,"o":"m 43 0 l 43 196 q 78 236 72 213 q 83 306 83 260 l 83 569 l 83 586 q 76 643 83 622 q 43 679 69 664 l 43 875 l 442 875 l 442 679 q 417 648 424 669 q 411 597 411 626 l 411 564 l 411 207 l 531 207 l 531 564 l 531 597 q 525 649 531 629 q 500 679 519 668 l 500 875 l 889 875 l 889 679 q 865 649 871 669 q 858 597 858 628 l 858 564 l 858 207 l 978 207 l 978 564 l 978 597 q 972 649 978 629 q 947 679 967 668 l 947 875 l 1346 875 l 1346 679 q 1313 641 1321 664 q 1306 586 1306 618 l 1306 569 l 1306 306 q 1310 234 1306 254 q 1346 196 1315 214 l 1346 0 l 43 0 z "},"ù":{"ha":1389,"x_min":43,"x_max":1378,"o":"m 43 0 l 43 196 q 78 236 72 213 q 83 306 83 260 l 83 569 l 83 586 q 76 643 83 622 q 43 679 69 664 l 43 875 l 442 875 l 442 679 q 417 649 424 669 q 411 597 411 628 l 411 564 l 411 207 l 531 207 l 531 564 l 531 597 q 525 649 531 629 q 500 679 519 668 l 500 875 l 889 875 l 889 679 q 865 649 871 669 q 858 597 858 628 l 858 564 l 858 207 l 978 207 l 978 564 l 978 597 q 972 649 978 629 q 947 679 967 668 l 947 875 l 1346 875 l 1346 679 q 1313 641 1321 664 q 1306 586 1306 618 l 1306 569 l 1306 306 q 1313 242 1306 257 q 1378 196 1326 210 l 1378 -214 l 1101 -214 l 1101 -85 q 1036 0 1101 0 l 43 0 z "},"ú":{"ha":1056,"x_min":11,"x_max":1046,"o":"m 276 675 q 234 660 244 675 q 224 613 224 646 l 224 450 l 11 450 l 11 875 l 644 875 l 644 679 q 612 643 619 667 q 604 589 604 619 l 604 569 l 721 569 q 958 503 878 569 q 1046 282 1046 431 q 962 68 1046 136 q 721 0 878 0 l 236 0 l 236 196 q 271 236 265 213 q 276 306 276 260 l 276 675 m 621 196 q 696 214 674 196 q 718 282 718 232 q 696 350 718 332 q 621 368 674 368 l 604 368 l 604 196 l 621 196 z "},"û":{"ha":1361,"x_min":44,"x_max":1317,"o":"m 1276 306 q 1281 234 1276 254 q 1317 196 1286 214 l 1317 0 l 908 0 l 908 196 q 941 233 933 208 q 949 290 949 258 l 949 311 l 949 564 l 949 581 q 942 641 949 617 q 908 679 935 665 l 908 875 l 1317 875 l 1317 679 q 1284 641 1292 664 q 1276 586 1276 618 l 1276 569 l 1276 306 m 529 0 l 44 0 l 44 196 q 79 236 74 213 q 85 306 85 260 l 85 569 l 85 586 q 78 643 85 622 q 44 679 71 664 l 44 875 l 453 875 l 453 679 q 420 643 428 667 q 413 589 413 619 l 413 569 l 529 569 q 767 503 686 569 q 854 282 854 431 q 770 68 854 136 q 529 0 686 0 m 429 196 q 503 214 479 196 q 526 282 526 232 q 504 350 526 332 q 429 368 482 368 l 413 368 l 413 196 l 429 196 z "},"ü":{"ha":861,"x_min":42,"x_max":851,"o":"m 526 0 l 42 0 l 42 196 q 76 236 71 213 q 82 306 82 260 l 82 569 l 82 586 q 75 643 82 622 q 42 679 68 664 l 42 875 l 450 875 l 450 679 q 417 643 425 667 q 410 589 410 619 l 410 569 l 526 569 q 764 503 683 569 q 851 282 851 431 q 767 68 851 136 q 526 0 683 0 m 426 196 q 500 214 476 196 q 524 282 524 232 q 501 350 524 332 q 426 368 479 368 l 410 368 l 410 196 l 426 196 z "},"ý":{"ha":833,"x_min":39,"x_max":794,"o":"m 467 540 l 467 579 q 460 650 467 629 q 406 689 447 689 q 358 664 369 689 q 346 599 346 639 l 346 582 l 39 582 l 39 785 q 216 869 117 844 q 431 893 315 893 q 724 814 640 893 q 794 594 794 746 l 794 303 q 749 103 794 168 q 422 -18 664 -18 q 221 7 315 -18 q 39 94 108 36 l 39 314 l 346 314 q 353 224 346 246 q 406 186 365 186 q 460 226 447 186 q 467 300 467 247 l 467 357 l 251 357 l 251 540 l 467 540 z "},"þ":{"ha":1333,"x_min":43,"x_max":1292,"o":"m 513 347 l 411 347 l 411 306 q 416 234 411 256 q 451 196 421 213 l 451 0 l 43 0 l 43 196 q 78 236 72 213 q 83 306 83 260 l 83 569 l 83 586 q 76 643 83 622 q 43 679 69 664 l 43 875 l 451 875 l 451 679 q 419 644 426 667 q 411 590 411 622 l 411 569 l 411 550 l 513 550 l 513 561 q 522 703 513 660 q 594 821 539 778 q 720 878 649 864 q 881 893 792 893 q 1049 883 972 893 q 1179 842 1126 872 q 1275 719 1250 799 q 1292 561 1292 667 l 1292 333 q 1281 185 1292 236 q 1209 58 1263 104 q 1069 -6 1156 13 q 914 -18 1008 -18 q 763 -8 826 -18 q 619 40 671 6 q 526 169 549 88 q 513 333 513 221 l 513 347 m 840 306 q 846 229 840 249 q 901 186 858 186 q 957 228 944 186 q 964 306 964 250 l 964 558 l 964 592 q 954 657 964 635 q 903 689 940 689 q 852 659 864 689 q 840 583 840 629 l 840 558 l 840 306 z "},"ÿ":{"ha":917,"x_min":26,"x_max":874,"o":"m 874 875 l 874 679 q 841 641 849 664 q 833 586 833 618 l 833 569 l 833 306 q 838 234 833 254 q 874 196 843 214 l 874 0 l 465 0 l 465 196 q 498 231 490 208 q 506 285 506 253 l 506 306 l 506 342 l 493 342 q 413 318 431 342 q 396 235 396 294 q 392 85 396 128 q 376 0 389 42 l 26 0 l 26 199 q 60 230 53 207 q 67 283 67 253 l 67 292 q 97 390 67 357 q 203 438 126 422 q 79 514 117 456 q 47 644 47 563 q 74 760 47 710 q 156 838 100 810 q 292 871 213 867 q 415 875 372 875 l 874 875 m 506 525 l 506 679 l 474 679 q 402 662 424 679 q 381 604 381 644 q 474 525 381 525 l 506 525 z "}}}
